<svg xmlns="http://www.w3.org/2000/svg" xmlns:xlink="http://www.w3.org/1999/xlink" viewBox="0 0 299.56 41.63" preserveAspectRatio="xMinYMid"><defs><style>.cls-1{fill:#4f943d;}.cls-2,.cls-5{fill:#fff;}.cls-2{fill-rule:evenodd;}.cls-3{fill:url(#linear-gradient);}.cls-4{fill:#231f20;}.cls-6{fill:none;}.cls-7{fill:#439539;}.cls-8{fill:#754c29;}.cls-9{fill:#f15a29;}</style><linearGradient id="linear-gradient" x1="41.88" y1="48.84" x2="41.88" y2="45.88" gradientUnits="userSpaceOnUse"><stop offset="0" stop-color="#fff"/><stop offset="1" stop-color="#c2b59b"/></linearGradient></defs><title>mz-logo</title><g id="Text"><path class="cls-1" d="M84.65,48.55c-2.15-.11-4.27-.14-6.6-.11-.21,0-.31,0-.38-.14a3.28,3.28,0,0,1-.07-1c1.63-.21,2.26-.52,2.43-2,.28-2.19.42-5.9.56-10.07l.21-6.77c0-1.11-.24-1.42-3.09-1.56a3.93,3.93,0,0,1,.31-1,.5.5,0,0,1,.45-.17c.8,0,2.57.11,3.51.11h1.74A6.93,6.93,0,0,0,84,27.23c1.63,3.71,6.11,12,8.26,15.55a.21.21,0,0,0,.35-.1c2.43-4.58,5.83-11.18,7.88-15.52a4.27,4.27,0,0,0,.21-1.32c2.64,0,4.31-.11,5.8-.11.17.14.17.94.14,1.08-2.36.17-2.81.49-2.85,1.53s0,3.51,0,8.12c0,4,0,6.56,0,7.88.1,2.4.24,2.46,2.43,2.81.1,0,.17.59.17.87s-.07.28-.17.28h-2.5c-1,0-3.51.07-5.07.21l0-.73c0-.35.07-.42.24-.45,1.49-.38,1.6-.52,1.77-1.67.1-1,.14-2.57.38-16.39,0-.24-.17-.21-.21-.1-.49.9-4.27,9-6.08,12.71-1.77,3.58-2.36,5-2.53,5.38-.42.83-.52,1.11-.8,1.11-.1,0-.28-.1-.42-.35s-1-2-1.53-3.23c-3.4-7.15-6.28-13-7.57-15.55,0,2.67,0,7.71,0,11.67a39.29,39.29,0,0,0,.21,5.45c.14.56.62.77,1.74.94.49.07.59.14.63.42Z" transform="translate(-15.8 -16.24)"/><path class="cls-1" d="M109.08,38.83a2,2,0,0,1-.63.11.61.61,0,0,1-.42-.45,1.57,1.57,0,0,1,.28-.8,12,12,0,0,1,4.06-2.78,5.61,5.61,0,0,1,1.91-.42,3.44,3.44,0,0,1,2.88,1.25,2.3,2.3,0,0,1,.66,1.67c0,2.46-.1,4.9-.1,7.19,0,1.84.31,2.5.87,2.5a6.3,6.3,0,0,0,1.7-.45c.1-.07.35.21.35.35l-.07.59a.48.48,0,0,1-.21.38,13.91,13.91,0,0,1-3.85.87c-.59,0-1.15-.35-1.42-1.8a35.32,35.32,0,0,1-4.41,1.73,3.31,3.31,0,0,1-2-.73,3.65,3.65,0,0,1-1-2.67c0-.76.52-1.32,1.49-1.81a21.09,21.09,0,0,1,6-1.87c.07-.45.07-1.77.07-2.5a3.83,3.83,0,0,0-.59-2.53,3.62,3.62,0,0,0-1.94-.52,4.37,4.37,0,0,0-1.39.21c-.14.1-.24.35-.24,1.49,0,.24,0,.35-.21.42ZM112.2,47a7.3,7.3,0,0,0,2.15-.73c.42-.28.69-.48.76-.9s.1-1.74.1-2.22c0-.24-.07-.42-.17-.42A9.64,9.64,0,0,0,111,44c-.21.14-.35.42-.35,1,0,1.18.35,1.91,1.56,1.91Z" transform="translate(-15.8 -16.24)"/><path class="cls-1" d="M122.55,47.34c.8-.28,1-.35,1-.8s.07-1.35.07-4.37V39c0-.83-.07-1-1.42-1.42a.75.75,0,0,1-.38-.76c1.32-.87,2.74-1.63,3.82-2.36a1.45,1.45,0,0,1,.42-.14c.14,0,.31.24.24.56,0,.9-.14,1.7-.1,2.74.69-.34,2.81-2,3.26-2.36a1.94,1.94,0,0,1,1-.48,2,2,0,0,1,1.91,1.63c0,.56-.87,1.56-1.18,1.84a1.15,1.15,0,0,1-.59.28.51.51,0,0,1-.45-.24,1.77,1.77,0,0,0-1.32-.8,4.16,4.16,0,0,0-2.33,1.18c-.24.21-.31.66-.31,2.29v4.34a4,4,0,0,0,.14,1.49c.11.17.24.28.63.24l1.87-.07a.28.28,0,0,1,.28.31l-.21,1.08h-4.58c-.9,0-1.77.07-2,.07s-.21-.1-.1-.31Z" transform="translate(-15.8 -16.24)"/><path class="cls-1" d="M135.77,37.37c0-.17-.24-.28-1.87-.56-.14,0-.17-.1-.07-.28.24-.62.28-.69.45-.73,1.35-.45,2.57-1,4.1-1.49a.31.31,0,0,1,.17,0c.07,0,.07.07.07.28-.14,2.36-.31,7.26-.31,9.06s0,2.4,0,2.81.14.69.48.66c1.08-.07,1.36-.07,1.46-.07s.31.21.28.31l-.1.9c0,.21-.1.21-.28.21-1,0-2-.07-3.09-.07a27.26,27.26,0,0,0-3,.21c-.17,0-.24,0-.28-.17a3.2,3.2,0,0,1-.07-.8c0-.14.07-.17.17-.17,1.25-.14,1.53-.24,1.74-1.21a33.81,33.81,0,0,0,.24-5.17Zm2-10.69a1.53,1.53,0,0,1,1.49,1.6,1.75,1.75,0,0,1-1.74,1.87,1.54,1.54,0,0,1-1.53-1.6,1.82,1.82,0,0,1,1.74-1.88Z" transform="translate(-15.8 -16.24)"/><path class="cls-1" d="M149,34.49a6.9,6.9,0,0,1,6.42,7,6.76,6.76,0,0,1-2.71,5.66,9.23,9.23,0,0,1-4.65,1.53,7.45,7.45,0,0,1-5.28-2.53,7.86,7.86,0,0,1-1.46-4.44,7.31,7.31,0,0,1,1.39-4.17,7,7,0,0,1,2.33-2A9.91,9.91,0,0,1,149,34.49Zm-1.56,1.32a2.53,2.53,0,0,0-1.77.8c-.94.94-1.32,2.36-1.32,4.62a6.63,6.63,0,0,0,1.7,4.58,4.41,4.41,0,0,0,3.27,1.59,2.66,2.66,0,0,0,1.7-.62,5.39,5.39,0,0,0,1.49-4.1A7.67,7.67,0,0,0,150.46,37a4.59,4.59,0,0,0-3-1.22Z" transform="translate(-15.8 -16.24)"/><path class="cls-1" d="M156.84,47.61c1.08-.38,1.49-.62,1.6-1.56a36.7,36.7,0,0,0,.24-4.79c0-1.35-.07-2.6-.11-3.23,0-.35-.14-.49-1.74-.87-.14-.17-.21-.1-.07-.66,0-.11.1-.17.31-.25,1.49-.73,3-1.56,3.19-1.7a.71.71,0,0,1,.38-.1c.17,0,.35.1.35.24,0,.59.07,1.25.07,1.84,0,.17,0,.31.17.31a28.81,28.81,0,0,1,3.05-1.56,4.75,4.75,0,0,1,1.94-.48,3.52,3.52,0,0,1,2.36.76A4.78,4.78,0,0,1,170.14,39c.07.73.07,1.56.07,3.05,0,2.53,0,4,0,4.83,0,.31,0,.35.14.35.31,0,1.32-.1,1.84-.14.1,0,.17.14.17.35a5.1,5.1,0,0,1-.14.83c-.07.17-.14.17-.28.17-3.09,0-4.13.14-5.45.14-.21,0-.38,0-.42-.14l-.17-.69c1-.35,1.39-.62,1.53-1.6a31,31,0,0,0,.21-4.79c0-1.91,0-2.88-.83-3.75a3,3,0,0,0-2.33-.87,7,7,0,0,0-2.92.94,1,1,0,0,0-.38.83c-.07,1.22-.07,6.18-.07,8.05,0,.45.07.52,1.88.8.21,0,.24.1.21.24l-.21.76h-3c-1.39,0-2.5.17-3.19.17-.07,0-.1-.07-.1-.21Z" transform="translate(-15.8 -16.24)"/><path class="cls-1" d="M187.37,48.35c-4.62,0-6.56.14-8.26.14-.24,0-.42-.1-.73-.59-.1-.17-.1-.35.07-.45s1.22-1.22,3.79-4.13c2.81-3.23,10.52-12.5,13-15.62.17-.17,0-.38-.28-.38-1.53-.14-3.23-.17-4.9-.17-2.5,0-4.23.07-5.73.21A4.13,4.13,0,0,0,181,29.29a36.28,36.28,0,0,0-2,3.23l-.17,0c-.69-.17-.73-.28-.69-.49.52-2.12,2.29-6.87,2.5-7.43.07-.21.17-.28.24-.28a5.72,5.72,0,0,1,.83.21c0,1,0,1.18.1,1.21,1.18.07,2.12.1,5.24.1h5.14c2.74,0,5.17-.14,6.46-.17H200c.1,0,.17,0,.14.28a3.29,3.29,0,0,1-.9,1.6c-2,2.19-4.48,4.9-8.47,9.86-2.54,3.23-4.83,6-7.54,9.44.28.1,1.18.24,6,.24,6.84,0,7.74-.45,8.68-1.56a16,16,0,0,0,2.08-4.06c0-.07.14-.21.73-.21.21,0,.28,0,.24.21-.31,1.63-1.08,4.72-1.53,6.18-.35,1.18-.52,1.67-.62,1.7a3.71,3.71,0,0,1-1,.18c0-.94,0-1-.35-1.08-.9-.1-3-.07-6.74-.07Z" transform="translate(-15.8 -16.24)"/><path class="cls-1" d="M209.89,34.47a6.9,6.9,0,0,1,6.42,7,6.77,6.77,0,0,1-2.71,5.66A9.22,9.22,0,0,1,209,48.7a7.45,7.45,0,0,1-5.28-2.53,7.86,7.86,0,0,1-1.46-4.44,7.3,7.3,0,0,1,1.39-4.17,7,7,0,0,1,2.33-2,9.87,9.87,0,0,1,3.92-1.11Zm-1.56,1.32a2.52,2.52,0,0,0-1.77.8c-.94.94-1.32,2.36-1.32,4.62a6.62,6.62,0,0,0,1.7,4.58,4.39,4.39,0,0,0,3.26,1.6,2.65,2.65,0,0,0,1.7-.62,5.39,5.39,0,0,0,1.49-4.1A7.67,7.67,0,0,0,211.32,37a4.58,4.58,0,0,0-2.95-1.22Z" transform="translate(-15.8 -16.24)"/><path class="cls-1" d="M225.58,34.47a6.9,6.9,0,0,1,6.42,7,6.77,6.77,0,0,1-2.71,5.66,9.22,9.22,0,0,1-4.65,1.53,7.45,7.45,0,0,1-5.28-2.53,7.84,7.84,0,0,1-1.46-4.44,7.3,7.3,0,0,1,1.39-4.17,7,7,0,0,1,2.33-2,9.89,9.89,0,0,1,3.92-1.11ZM224,35.78a2.53,2.53,0,0,0-1.77.8c-.94.94-1.32,2.36-1.32,4.62a6.62,6.62,0,0,0,1.7,4.58,4.4,4.4,0,0,0,3.26,1.6,2.65,2.65,0,0,0,1.7-.62,5.39,5.39,0,0,0,1.49-4.1A7.67,7.67,0,0,0,227,37a4.58,4.58,0,0,0-3-1.22Z" transform="translate(-15.8 -16.24)"/><path class="cls-1" d="M233.67,48.18c0-.24.07-.56.17-.59a3.89,3.89,0,0,1,.83-.31c.69-.28.8-.45.83-.94.24-4.24.31-10.28.31-13.09,0-2.43,0-4.24-.07-5.28s-.31-1.08-1.91-1.21c-.11,0-.11-.07.07-.77,0-.1.1-.17.35-.21a42.75,42.75,0,0,0,4.2-1.74.26.26,0,0,1,.14,0c.1,0,.1.1.1.28-.31,4.44-.42,11.25-.42,17.71,0,4.48.11,5.14,1,5.14.48,0,1.32-.07,1.46-.07s.21.07.17.21a6.58,6.58,0,0,1-.17.94c0,.14-.1.14-.24.14-1.18,0-5.52.1-6.67.28-.14,0-.17,0-.17-.17Z" transform="translate(-15.8 -16.24)"/><path class="cls-1" d="M249,34.47a6.9,6.9,0,0,1,6.42,7,6.76,6.76,0,0,1-2.71,5.66,9.22,9.22,0,0,1-4.65,1.53,7.46,7.46,0,0,1-5.28-2.53,7.85,7.85,0,0,1-1.46-4.44,7.3,7.3,0,0,1,1.39-4.17,7,7,0,0,1,2.33-2A9.9,9.9,0,0,1,249,34.47Zm-1.56,1.32a2.53,2.53,0,0,0-1.77.8c-.94.94-1.32,2.36-1.32,4.62a6.61,6.61,0,0,0,1.7,4.58,4.4,4.4,0,0,0,3.26,1.6,2.65,2.65,0,0,0,1.7-.62,5.38,5.38,0,0,0,1.49-4.1A7.67,7.67,0,0,0,250.47,37a4.59,4.59,0,0,0-3-1.22Z" transform="translate(-15.8 -16.24)"/><path class="cls-1" d="M263.79,34.19a6.57,6.57,0,0,1,2.61.73.91.91,0,0,0,.59.14c.59,0,2.6-.42,3.33-.42a1,1,0,0,1,.69.45,10,10,0,0,1,.14,1.08c0,.21-.18.41-.59.45s-1.42,0-3,0a6.3,6.3,0,0,1,.94,3c0,2.43-1.77,4.58-4.44,5.66a20.76,20.76,0,0,0-2.85,1.32.61.61,0,0,0-.31.45c0,.62.83.94,1.77.94l2.92-.07a6.31,6.31,0,0,1,4,1,3,3,0,0,1,1,2.43,3.94,3.94,0,0,1-1.25,2.85A9.65,9.65,0,0,1,265,57.34a12.94,12.94,0,0,1-3.4.52c-3.79,0-5.28-1.8-5.28-3.19A3.15,3.15,0,0,1,257.68,52c.87-.62,1.56-1.11,2.6-1.8C258.79,49.5,258,49,258,48a1,1,0,0,1,.21-.73,26.2,26.2,0,0,1,3.33-1.8A6.38,6.38,0,0,1,258.69,44a5,5,0,0,1-1.53-3.64,5.8,5.8,0,0,1,2.67-4.79,7.19,7.19,0,0,1,3.92-1.42ZM263.1,56a6.28,6.28,0,0,0,4.34-1.32,2.88,2.88,0,0,0,1.22-2.12,1.65,1.65,0,0,0-.73-1.53,5,5,0,0,0-3-.76,20.6,20.6,0,0,0-3.54.31,3,3,0,0,0-1.32.83,3.2,3.2,0,0,0-1.25,2.19c0,.62.76,2.4,4.24,2.4Zm3.12-15.17a7.2,7.2,0,0,0-.87-3.51,3.59,3.59,0,0,0-3.09-1.7,2.6,2.6,0,0,0-1.77.76,3.17,3.17,0,0,0-.9,2.46,5.62,5.62,0,0,0,1.56,3.92A3.83,3.83,0,0,0,263.72,44c1.29,0,2.5-.8,2.5-3.12Z" transform="translate(-15.8 -16.24)"/><path class="cls-1" d="M274.1,37.35c0-.17-.24-.28-1.87-.56-.14,0-.17-.1-.07-.28.24-.62.28-.69.45-.73,1.35-.45,2.57-1,4.1-1.49a.33.33,0,0,1,.17,0c.07,0,.07.07.07.28-.14,2.36-.31,7.26-.31,9.06s0,2.4,0,2.81.14.69.48.66c1.08-.07,1.36-.07,1.46-.07s.31.21.28.31l-.11.91c0,.21-.1.21-.28.21-1,0-2-.07-3.09-.07a27.3,27.3,0,0,0-3,.21c-.17,0-.24,0-.28-.17a3.28,3.28,0,0,1-.07-.8c0-.14.07-.17.17-.17,1.25-.14,1.53-.24,1.73-1.21a34,34,0,0,0,.24-5.17Zm2-10.69a1.53,1.53,0,0,1,1.49,1.6,1.76,1.76,0,0,1-1.74,1.87,1.54,1.54,0,0,1-1.53-1.6,1.82,1.82,0,0,1,1.74-1.88Z" transform="translate(-15.8 -16.24)"/><path class="cls-1" d="M288.78,34.43A4.92,4.92,0,0,1,292,35.58a.66.66,0,0,1,.24.49c0,.49-.69,1.08-1.11,1.32a1.21,1.21,0,0,1-.8.14,2.79,2.79,0,0,1-.76-.45,5.52,5.52,0,0,0-2.6-.87,3.28,3.28,0,0,0-2.33.87c-.9.9-1.18,2.22-1.18,4.13a6.74,6.74,0,0,0,1.11,4.06,4.32,4.32,0,0,0,3.23,1.6,9.26,9.26,0,0,0,3.71-1.42c.11,0,.42.1.42.21a1.86,1.86,0,0,1-.38,1.08,14.65,14.65,0,0,1-3.16,1.6,7,7,0,0,1-1.95.35,6.64,6.64,0,0,1-3.89-1.39,6,6,0,0,1-1.91-4.44c0-3.51,1.49-4.83,2.08-5.41a14.59,14.59,0,0,1,3.09-2.16,5.93,5.93,0,0,1,2.88-.83Z" transform="translate(-15.8 -16.24)"/><path class="cls-1" d="M295.24,38.8a2,2,0,0,1-.62.11.62.62,0,0,1-.42-.45,1.58,1.58,0,0,1,.28-.8,12,12,0,0,1,4.06-2.78,5.62,5.62,0,0,1,1.91-.42,3.44,3.44,0,0,1,2.88,1.25,2.3,2.3,0,0,1,.66,1.67c0,2.46-.1,4.89-.1,7.19,0,1.84.31,2.5.87,2.5a6.32,6.32,0,0,0,1.7-.45c.11-.07.35.21.35.35l-.07.59a.49.49,0,0,1-.21.38,13.93,13.93,0,0,1-3.85.87c-.59,0-1.14-.35-1.42-1.8a35.61,35.61,0,0,1-4.41,1.73,3.3,3.3,0,0,1-2-.73,3.65,3.65,0,0,1-1-2.67c0-.76.52-1.32,1.49-1.81a21.08,21.08,0,0,1,6-1.87c.07-.45.07-1.77.07-2.5a3.83,3.83,0,0,0-.59-2.53,3.62,3.62,0,0,0-1.94-.52,4.35,4.35,0,0,0-1.39.21c-.14.1-.24.35-.24,1.49,0,.24,0,.35-.21.41ZM298.37,47a7.38,7.38,0,0,0,2.15-.73c.42-.28.69-.49.76-.9s.11-1.74.11-2.22c0-.24-.07-.42-.17-.42a9.6,9.6,0,0,0-4.1,1.32c-.21.14-.35.42-.35,1,0,1.18.35,1.91,1.56,1.91Z" transform="translate(-15.8 -16.24)"/><path class="cls-1" d="M307.63,48.18c0-.24.07-.56.17-.59a3.91,3.91,0,0,1,.83-.31c.69-.28.8-.45.83-.94.24-4.24.31-10.28.31-13.09,0-2.43,0-4.24-.07-5.28s-.31-1.08-1.91-1.21c-.1,0-.1-.07.07-.77,0-.1.1-.17.35-.21a42.64,42.64,0,0,0,4.2-1.74.26.26,0,0,1,.14,0c.1,0,.1.1.1.28-.31,4.44-.42,11.25-.42,17.71,0,4.48.1,5.14,1,5.14.48,0,1.32-.07,1.46-.07s.21.07.17.21a6.46,6.46,0,0,1-.17.94c0,.14-.1.14-.24.14-1.18,0-5.52.1-6.67.28-.14,0-.17,0-.17-.17Z" transform="translate(-15.8 -16.24)"/></g><g id="White_block" data-name="White block"><path class="cls-2" d="M63.47,36.16A11.54,11.54,0,0,0,58.81,32l-.05.49c-.08-.41-.17-.81-.27-1.21-.75-3.05-4.25-6.73-4.47-7,0,0,0,.21-.29-.17-1.86-2.21-7-3.1-7-3.1-1.44,0-6.19.29-8.66,1.78a12.87,12.87,0,0,0-3.75,3.71c-.64,1.25-.78,1.1-.78,1.1s-1.35,4.82-.95,7.21c.08.5.16,2.43.37,3.1s1.14.63,2.23,1.38a16.39,16.39,0,0,0,2.68,1.23,4,4,0,0,1,1.3,1.19c.38.4.77.24,1.26.58a44.19,44.19,0,0,0,4.27,1.43,9.13,9.13,0,0,0,2.81.18,16.86,16.86,0,0,0,2.66-.21c1.22-.19,3.23-1,6.33-3.55a6.88,6.88,0,0,0,1.64-1.89c-.06.59-.09,1-.09,1.14,0,.55,2.8,7.6,4.38,7.3.67-.13,1.8-3.16,2.08-5.35A8.77,8.77,0,0,0,63.47,36.16Z" transform="translate(-15.8 -16.24)"/></g><g id="Layer_6" data-name="Layer 6"><path class="cls-3" d="M16.24,46.11,17.68,46a17.47,17.47,0,0,1,1.88-.12c.55,0,30.41.28,42.86.79,2.64.11,4.63.2,5.25.34a1.9,1.9,0,0,0,.2,1.69c-.07,0-.15.15-.26.14a8.72,8.72,0,0,1-1.24-.18c-.85-.08-1.87-.09-2.6-.08-1.22,0-8.13,0-9.53,0a.87.87,0,0,0-.24.05c-.23,0-2.08-.09-4.31-.17-.66,0-1.32,0-2,0-2.74-.08-5.3-.22-6.83-.07A52.53,52.53,0,0,1,32,48.1s-5,.33-5.87.52a40,40,0,0,0-9.77.12,3.44,3.44,0,0,1-.4-.8C15.81,47.6,16,47.11,16.24,46.11Z" transform="translate(-15.8 -16.24)"/><path d="M46.69,21.08l0,0c.06-.09-.09-.19-.08-.3-.07.1-.19-.14-.29,0v-.06l-.13,0h0l-.46,0,0,.05-.08,0c0,.09.12,0,.08.09-.06-.11-.3,0-.35-.11l0,.06,0,0v0l-.07-.08h-.07l-.57.12v0c-.13.06-.11,0-.25,0h0l-.11,0s-.08,0,0-.09c-.14.07-.07,0-.15.16l0,0-.1.08c.05,0-.05-.06,0-.12-.16-.08-.22.12-.3,0-.06.13.14.05.1.08s0,.1-.1.09-.1-.14-.22-.13h-.12c0,.07-.07,0-.07.1l.11,0c-.06,0-.11.15-.22.11l.05-.06h-.09c0-.09.13,0,.19-.11s-.12.08-.1,0c0,.13-.12,0-.19.1V21l-.06,0,0-.07c-.06.07-.14,0-.2,0,.14,0,0,.06.1.09-.14.09-.13-.08-.27-.06,0,0,.05,0,0,0l-.11,0c-.12,0,0,.05,0,.1s-.06,0-.11.07v-.06c-.15,0,0,.12-.15.11l0-.09-.06,0V21.1l-.16.05-.05.12s0-.06-.07,0,0-.09.08,0v-.06l-.15,0h0l-.11.1v-.06l-.07.05,0-.13-.11.08-.06-.06-.24.11,0,0c-.09,0-.17,0-.26.05L41,21.28c-.07,0,.1.08,0,.14s-.05-.06-.09-.08-.09.15-.2.1l.07,0-.08,0c.06-.09.12-.08,0-.13,0,.16-.25.07-.21.22l-.05,0h0c-.1-.05,0,.12-.14.12l-.05,0-.07.06v0l-.12.06h0l-.05.11v0l-.05.06s0-.09.05-.1c-.11-.12,0,.06-.21,0l.06,0-.2,0s.19.07.13.14l-.08,0h-.1l0-.07,0,.12-.12-.07c-.1,0,.1.06,0,.12L39.2,22l0-.06,0,.07,0,0,0,.12c0,.08-.18-.06-.22.06l0-.07-.12.19h-.09c.08,0,0,.18,0,.18l0-.14,0,0v0l0,0-.06-.06v0h-.15c-.05.11,0,.17-.15.26l-.13-.07c.08,0,.09-.07.18-.09l0,0-.1.12-.1,0c.08.09-.06.11-.09.18l0-.11c-.11,0,0,.17-.12.15l0,0c0,.05-.11.08-.11,0h0c-.1.05-.29.2-.25.29l-.06-.13s-.19.18-.14.09l-.1.07.09.1c-.11,0-.07,0-.19,0l0,.15-.07-.13v.17l-.1-.11-.09.09h.05c-.11.06.05.16,0,.23a.16.16,0,0,0-.17-.07c0,.07-.06,0-.06,0l-.09,0v-.08l-.14.08c.05.06.09,0,.09,0a.21.21,0,0,1-.13.16l-.07.1v-.06c-.07,0,0,.15-.13.14s-.13,0-.1,0,0,.13,0,.13V24H36c0,.07-.1.07,0,.07l-.11.07,0,.23,0,0-.25.17-.08,0,0,.08c-.1,0,0-.06,0-.09l0,.16c.06,0,.09-.07.11-.13s-.05.3-.05.32a1.36,1.36,0,0,1-.27.16l.15-.09-.07,0,.06-.08c-.07,0-.22.2-.36.25l0,.08,0,0,0,.08-.09.18-.06,0h0s-.07,0,0,.08H35l0,.21c.07,0,0,0,.1,0-.1,0,.1-.14,0-.15l.19,0V25.4h0l.1-.13v-.06s.13,0,.09.07l.05,0,.12-.08s0-.1,0-.05l.06-.1h0c.09-.07.11-.23.27-.25l.09-.11,0,0s.14-.07.12-.12.2-.13.29-.17l0,0,.13-.15,0,0,.23-.14,0,0c.17,0,.15-.23.29-.23l.05,0h0l.05-.07,0,0h0l0-.06v-.05c.07.06,0-.08.13,0s.11-.12.07-.21v0l.08-.06.05,0v-.12l.09.09c0-.13.06-.08.09-.2l0,0,.08-.08c.11,0,.32-.21.53-.23-.1-.1.11,0,.07-.08l0,.07c.08-.07.16,0,.18-.11l0,.06,0,0v0c.09,0,.05-.13,0-.22l.1-.06s.07,0,0,.07.22,0,.19-.11l.05,0,.15-.06h0c0-.09.05,0,.11-.08h0c.16,0,0-.05.21,0l0,0c0-.12.14,0,.2-.06l0,0c0-.06.18.1.22.1l0,0c.13,0,0-.08.07-.12l.07.09s.12-.19.22-.15l0-.08c.06,0,.19,0,.22-.07l0,0,.16-.13c.09.18.27-.15.32,0l.14,0v0l.14-.11v0c.15,0,.16,0,.25-.12l0,.05s.22,0,.34,0v0c.14-.1.39.08.41-.14l.09-.07c-.13,0,.09-.08,0-.06h0c0,.11.17,0,.18.08l.75-.07,0-.08h.08l0,.07s.09-.05.09-.07,0,.1,0,.1h0l.11-.08,0,.05h.13l0-.06s.1,0,0-.08c.09.11.4,0,.45,0l.21-.06s0-.09,0-.09c0,.16.13.05.2.16-.06-.07.2,0,.11-.14l.06.09c.13-.08.31,0,.48,0v-.08l.1.1s0-.12.09-.05v0c.34.08.69-.12,1,.06l0,0V21.1l.14.07Z" transform="translate(-15.8 -16.24)"/><polygon points="34.14 18.01 34.14 18.01 34.13 18.02 34.14 18.01"/><polygon points="34.65 18.38 34.65 18.39 34.65 18.38 34.65 18.38"/><path d="M50.41,35l.07,0h0l.07,0v0l.06,0h0l.06-.05c-.08,0,0-.06,0-.06h0l0,0h0l0-.07h-.09l0,0,0,0v0c-.06.05,0,0,0,0h0l0,0,0,0,0-.12h-.07l0-.07,0,0h0l-.06,0,0-.05h0l-.06,0,.06,0h0l.05,0v0l0,0s0,0,0,0h0l-.09.06c.05-.05-.06,0,0-.06l0,0-.12,0,.08,0,.08-.09-.09,0s0-.06-.07,0h0l.05-.08,0,0h0l-.06,0,.06-.1-.15.07.06,0h0l.1-.05H50l-.05,0h0l0-.06-.09,0,0,0c0-.07-.09,0-.06-.07l0,0,0-.06h0l-.06.06.13.14,0,0v0h0l0,.07H50l0,0,.07,0,0,0,.09.11h0s.07,0,0,0,0,.06.09,0,0,.07,0,.08h.07l-.1,0c.09,0,0,.11.14,0h0v0l0,0,0,.05.13,0,0,0,.06,0h0c-.06.07,0,0,0,.08l.05,0,0,0,0,.05h0Z" transform="translate(-15.8 -16.24)"/><path d="M50.5,34.59c0-.06,0,0,0,0l0,0h0Z" transform="translate(-15.8 -16.24)"/><path d="M51.06,35.45h0l0,0c0-.06,0-.08-.08,0l.09-.05L51,35.18l-.09.05,0,0-.06.06c0-.07-.12,0-.12,0l.15-.14-.07,0,.09,0v0l0,0L51,35s-.15.11-.2.1,0,0,0,0l.07-.05c-.1.06,0,0,0,0l.08,0-.11,0,0-.06.1-.06-.26.09.11-.09H50.6v0l-.12.07,0,0h-.06L50.4,35h.05l0,0h0l.07,0h0l.15-.09v0l-.15.08h0l0,0,.11,0c.14-.09,0,0,.11,0l-.08,0v0s-.1.09-.12.05l.06-.05-.11.06.06,0c.12,0,.1.1.1.1l.27.26.15,0,0-.05h0Z" transform="translate(-15.8 -16.24)"/><polygon points="33.83 17.21 33.78 17.23 33.81 17.23 33.83 17.21"/><polygon points="33.8 17.31 33.87 17.27 33.8 17.28 33.8 17.31"/><polygon points="33.83 17.3 33.83 17.32 33.81 17.34 33.84 17.33 33.83 17.32 33.88 17.3 33.83 17.3"/><polygon points="33.81 17.39 33.81 17.39 33.85 17.34 33.81 17.39"/><polygon points="33.86 17.4 33.81 17.39 33.79 17.43 33.82 17.41 33.8 17.44 33.86 17.4"/><polygon points="33.88 17.49 33.92 17.41 33.88 17.43 33.87 17.41 33.86 17.5 33.85 17.49 33.84 17.53 33.93 17.47 33.88 17.49"/><polygon points="33.84 17.55 33.89 17.55 33.91 17.51 33.84 17.55"/><path d="M49.77,33.89v0h-.06C49.78,33.84,49.65,33.95,49.77,33.89Z" transform="translate(-15.8 -16.24)"/><polygon points="33.98 17.56 33.95 17.58 33.98 17.57 33.98 17.56"/><path d="M49.89,34l0,0,.06,0-.08,0,0,0-.09,0,0,0c-.05.06,0,0,0,0l.05-.08-.12.06h.06l0,.05,0,0h0c0,.07.06,0,0,0h0Z" transform="translate(-15.8 -16.24)"/><polygon points="34.07 17.6 34.04 17.62 34.05 17.61 34.07 17.6"/><polygon points="34.18 17.71 34.16 17.72 34.19 17.7 34.18 17.71"/><polygon points="34.16 17.77 34.16 17.75 34.13 17.78 34.16 17.77"/><polygon points="34.77 18.21 34.68 18.27 34.75 18.23 34.77 18.21"/><polygon points="34.76 18.35 34.86 18.3 34.83 18.3 34.83 18.31 34.76 18.35"/><polygon points="34.75 18.35 34.76 18.35 34.74 18.35 34.75 18.35"/><path d="M50.73,34.81l.05-.05-.07,0,0,0S50.79,34.74,50.73,34.81Z" transform="translate(-15.8 -16.24)"/><polygon points="34.92 18.62 34.91 18.61 34.88 18.64 34.92 18.62"/><polygon points="34.97 18.68 35.05 18.65 34.95 18.69 34.97 18.68"/><polygon points="35.06 18.81 35.06 18.8 35.01 18.84 35.06 18.81"/><polygon points="35.18 18.84 35.16 18.87 35.2 18.85 35.18 18.84"/><polygon points="35.16 18.89 35.18 18.91 35.19 18.89 35.16 18.89"/><polygon points="35.21 18.92 35.18 18.93 35.21 18.93 35.21 18.92"/><path d="M46.66,41.13v0c0-.07,0,.08,0,0v0l0,0,0-.06s0,.08-.06,0l0,0,0-.05,0,0v0c0,.11-.05,0-.1.08l0-.09v0l-.05,0v0c0,.05-.07-.08-.12,0l-.1.1,0-.06h-.05v0l0,0,0-.06-.06.05,0-.06,0,0,0,0h0c0,.1.05,0,.08,0l0,.07,0-.05v.07l0,0h0l0,0v0h.06l.05-.1v.05s.07,0,.06.07V41.2c0,.09,0,0,0,0v.06c0-.07,0,0,.06,0v0l.07,0,.08.06h0l.06-.06,0,.07h0l0,0v0h.09v-.08h0l0,0,0,0v.05h0l0,.05,0,0,0,.06,0,0v0l.05-.05h0l.13,0v0l.08,0v.05h.05l0,0h.06l0,0,0,0h0v.05c0,.07.11-.11.14,0v-.07l0,.09.07-.05,0-.09v.1h0v0l0,.05v0l.08,0v0l.06,0,0,0v.07l.07,0h0v0l0-.1,0,0,0,.06h0s0-.06.06-.05v0h0l0,0v0l.07,0v.07h.06v-.07l-.05,0,0-.06,0,0v-.06c0,.06,0,0,.07,0v.1l.12,0h0l0,0v.06l0-.07,0,0,.08-.1,0,.09,0,0,0,0h0l0-.05v0c0,.1.11,0,.14.06l.08,0v0l.05-.07v0c0,.11,0,0,.08,0h0l.08,0v0l.08-.1v0l0,.08h0c0,.06,0,0,0,0v0l.07-.08v0c0-.07,0,0,0,0l0,.06.07-.09,0,.11,0,0,.06-.09c0,.12.09,0,.13.11l.18,0c-.05-.09,0,0,0-.1h0l.06.05v0l.06.06,0,0,0,0c0-.06.07.07.1,0v0s.09,0,.08-.1l0,0c.05,0,.08-.14.14-.11v0l0,0v0l0,0v0l.09-.13.1.07h0l.12-.15c.07.06.13,0,.2,0l0-.06s0-.06,0,0h0l.08,0,0-.08c.11.09.12-.11.2,0l0-.06,0,0,.1,0v-.11l0,.06.13-.06v0s.1,0,0-.08,0,0,.05-.05l0,0v-.09l0,0v0h.07v0l.06-.07,0,0,0,0,.07.09v-.1c.09.16.17.28.07.11v0l0,0,0,0h0v0h0c.07.09.11.12.05,0v0l0,0,.1-.06h.1l.14-.1c.06,0,.08-.05.13,0v0h.11v0l0,0h0l0,0h0c.06-.1.13,0,.19-.1h0s0,0,0,0h0c0,.06,0,0,0,0l.27-.07h.06l0,0h0l0,0s0,0,0-.09h0l.08,0h0v0a.09.09,0,0,1,.07,0h0s0-.09.08,0h0l.25,0c0-.07.08,0,.06-.1l.12.06,0-.09,0,0v-.06l0,.05,0,0,0,0,.1,0,.05-.07v0c0-.07,0,0,0,0v0l.09,0v0l.16-.09,0-.07,0,0,0-.06,0,.07,0,0,0,0,.06,0h0l.12-.08v-.07l.12,0,0-.07.06,0,.06-.13,0,0h0c0-.1.2,0,.18-.14h0V38.9l0,0,.08-.14c.12.05.1-.12.19-.11l0,0h0l0,0,.26-.29s-.12-.11,0-.13l0,0,.06-.31,0,0v-.08h0v-.06h0l0-.06,0-.09s0-.05,0-.08l.05-.08h.06l0-.06c.1,0,0-.11.08-.11l0-.22c.07,0,0,.07.06.08l-.05-.17,0,0-.06-.18h0l0,0h0l-.14,0c.1,0,0-.06.14,0h0l-.06-.06h0l-.06-.07h0l-.08-.14.08,0,0,0,0,0,0-.07,0,0,0,0,0,0-.07,0,0,0,0,0h.08l-.08-.07h0l0,0,0,0h0l0-.12h.07l-.09-.16h0c-.09,0,0-.05,0-.07h0l-.07-.12h0v-.09h-.05c.11-.13-.1-.11,0-.21h0l0,0,0,0-.05,0,.07,0h0c.05-.05-.07,0,0,0h0l0,0h.06l-.06,0,0,0,0-.06h0v0h0c-.12,0,0,0-.13-.05l.09,0,0,0,0,0,0,0,0,0c-.07,0,0-.11-.06-.12l-.14,0h.06l0-.06,0,0,0,0h.07l-.08,0h.06l-.06,0v0h0c-.08,0,0,0,0,.08l-.07,0h.07l-.06,0v0h0l0,.07h.11l-.1.07h0l0,0h.05s0,.06,0,.1l.05,0c-.08,0,0,0,0,.06l-.06,0c.08,0,0,.05,0,.06l0,0h0l.06,0v.11h0l.08,0h-.07v0h0l.06.08.07,0h0l0,0v0l0,.06h0l0,0h0l0,0,.06,0h0l0,.15h0l.06.07,0,0v.06l0,0v.06l0,0,0,0v0h-.05c-.06.07.13.08,0,.14l.07,0-.08.08.07.06h.09l-.1,0h0l0,0h0v.09h0l.05.05,0,0h-.07l0,.08h0v0h0l0,0h.1l0,0-.07,0v0h0s.06,0,.07.06l0,0h.07l0,0h0l0,0h0c.06,0,0,0,0,.07h-.07v.07l.07,0,0-.06.06,0,0,0h.06c-.06,0,0,0,0,.07h-.1l0,.12h0v0h-.07l0,0h0l.05.1-.08,0v.07h0l0,0h0l.05,0c-.11,0,0,.11-.13.12v.09h0s.08.06,0,.08l0,0c-.1,0,0,.06-.07.06h0v.09h0l0,.14-.05,0,.06.07h-.09v0l0,0,0,0,0,.12h0v.05l-.05,0,0,.13-.06-.13v.17c-.1-.08-.09,0-.18,0l-.13.13c.09,0,0,0,.06.08l0,0h-.08l0,0-.08,0v.05h.05c0,.07-.09,0-.08,0v0l0,.15,0,0s0,.16-.1.16v0l0,0v0l0,.17L54.42,39h0l-.11.14H54.1l0,.06s0,.06,0,0h0l-.08,0,0,.08c-.1-.09-.13.11-.2,0l0,.06v0l-.1,0v0l0,.16,0-.06h-.13v0s-.07-.07-.07,0c0-.06,0,0-.07,0v0l-.06.08h0v0h0c0-.09,0,0-.05,0l0,0v0h0v0l0,0h0l0-.09v0h0c0-.06,0-.06,0,0l0,0v0h0v0h0v0l0,.07h0l0,0h0l0,0h0l0-.15h-.16v0h-.08v-.05h0c0-.12-.21,0-.2-.11v0c0-.12-.18-.13-.19-.27h-.07l0,0H52.3c-.06,0,0-.13,0-.13l0,0,0-.06h0l0,0h-.06a.15.15,0,0,0,.09-.07c-.08,0,0,0,0-.07l0,0h0l.09,0v0h.08l0-.06h-.06c0-.09.09,0,.13-.1v0l.11-.19,0,0,.26-.22v0l0,0h0l.06-.06v0l.18-.2.15,0h0l.21-.28a.91.91,0,0,0,.31-.23l0-.05,0-.06h0l.08-.1,0,0c.12-.07.09-.31.18-.34v-.1h0l.08-.21,0,0-.05-.13h.05a.32.32,0,0,0,0-.31l0,0s0-.21-.06-.17,0-.11,0-.16h0L54,35.4h0L54,35.33h0l-.08,0-.05-.1-.07,0h0L53.68,35v0l.09.08,0-.07-.19,0h0l0,0h0l-.05,0,0,.05h0l.07,0h-.08l-.05,0-.09-.13-.26,0,0,0h0l-.15,0c-.06,0,0,0,0,0h0c-.16-.11-.25.14-.42.12h0l-.09,0-.16.07-.33.14-.06.08,0,0,0,.07c0,.07-.15,0-.2.12h0l-.09.05v0l-.05.08c-.06,0,0-.08-.1,0l0,.12h0l0,0h0l-.41.06h0v0h-.07l0,0v0l-.13,0s0,0,0,0h0l0,0v0h0v0h-.15v0h0s0,0-.09,0v0l-.12,0v0L50,36s-.12,0-.18,0h0l-.09.09V36l0,0,0,0v0l-.15.1,0,0h0l0,0h0l0,0h-.08v0h-.06l0,.05h0s-.12.07-.07.08h0l-.24.13h0l-.1.12h0l-.06.09v0l-.07.11-.06,0,0,0,0,.07,0,0c-.1.07,0,.21-.16.25h.06l-.12.08,0,.14,0,.05h-.06v0h0l0,.08h0v.2l0,0c0,.12,0,0,0,.12l0,.07h0l.1.14,0,0,0,0v0l.07,0,.05.08c-.05-.07,0,0-.08,0l0,0h0c0,.08.06,0,.12.06v.05l0,0,.08,0,0,0h0l.13.07v.05l.12.06,0,0-.11,0h.08l-.09,0,0,0,.13.06,0,.06.24,0,0,0h.1l0,0,.09,0,0,0,.17,0,0,.06h.14l0,0h0l0,0,.28.06h.16l.12,0,0,0c0,.08.09,0,.14,0h0l.16,0h0l.19,0,0,0,.05,0,.05.07h0l.09,0v0l.17,0h.08v0l.17,0-.15,0h.08l.16,0c0,.08.15.05.17.12s.06,0,.15,0l0,0h.06l0,0h0l0,0H52l-.06,0,.08,0v0l0,0,.07,0s0,0,0,.08h.08c-.09,0,0,0,0,.1l.14,0h0v.06l.13,0-.11.09.1,0,0,.07.07,0v.07l0,0,0,.08h.09l0,0,.11,0h-.06l.07,0h-.05l0,0h0v0l-.19-.1,0,0h0l0,0,0,.07-.07,0,.07.06h0l0,0v.07h-.08l0,.07c-.05-.07,0,0-.11,0v.12h-.06l0,.06h0l-.05-.05,0,.07h0l-.05,0,0,.06h-.06l0,0-.08,0v.08l0,0h0l0,0v.05l0,0v0l0,.07h0l0,0h0v0h0v0h0c-.08-.05,0,0-.06-.06l-.05.06,0,.06h0l0,0s-.09-.07-.08,0v.06h0l0,0v0h0s0,0,0,0l0,0v0h0l0,0v0l0,0v0l0,0v0h0v0s0,0,0,0v0l0,0-.15.08v.05l0,0,0,0,0,0c0,.06,0,.15-.1.11v0l0,.07h0l-.19,0c0,.07-.07,0,0,.09l-.12-.05v.08l0,0v.06l0,0v0l0,0-.08,0,0,.07v0c0,.06,0,0,0,0v0h-.07v0l-.12.08,0,.08,0,0,0,.06,0-.07v0l0,0h0l-.09.07v.08H50.1v.07l0-.06-.08.09,0,0,0,0h0c0,.08-.17,0-.19,0h0l0,.05,0-.05c0,.08-.09,0-.12.06-.07-.12-.12,0-.19,0v0l0,0,0,0c-.09.05-.21,0-.32,0s0,.15-.05.09v-.06l-.22.09v0l-.06,0v0l0,0v0l0,0h-.08l0,.06c0-.08-.05-.05-.07,0V41l0,.06c0-.08-.07.09-.1,0l-.17.12.06-.1-.13.1v0l-.15,0v0l0,0h0l0,.12c0-.09,0,0,0-.15l0,0v0l-.06,0v0l-.06,0v0l-.13,0v-.09l0,0v0l-.06,0,0,0h0l0,0,0,.06,0,0,0,0v-.08l-.07.06v-.06l0,0v0h-.11l0-.07-.16,0h0c0,.09,0,0-.06,0v0l-.12,0v0l-.07,0,0,0c-.05-.13-.13.06-.18-.05v0l-.05,0v.05l0,0Zm5.58-4.25.07-.09h0v-.05h0l0-.09h0l0,0h0v0l.07-.08h0v-.09h0v-.05l0,0,0,0,.05,0,0,0,0,0,0,0h0l0,0v-.05l0,0h0l0,0h0v-.06h0l0,0h0l0,0,0,0h0l0,0h0l0,0,.06,0,0-.05h0V36h.06l0,0h0v0h0l0,0h0l0,0h0v0l.11,0h0l0,0h0l0,0,0,0,.06-.06,0,0h0v0h0l0,0v0h0l0,0v0l0-.07.08,0v0l0,0,0,0v.06l.05-.07h0l0,0,0,0v0l0,0h0v0h0v0h0c0,.07.08,0,.1.06v0l0,0h.07v0l0,0h.1l0,0,0,.05h0v0h0l0,0,0,0,0,0,0,0,0,0v0h0l0,.05h0v0h0v.09h0v0h0v0h0l0,0-.07,0,0,0h0l0,.09,0,0v.1l0-.05,0,.12-.05,0v0h0l0,0v0h0l0,0v0h0l0,0h0l0,0h0l-.1.13v0l-.19.12v0h0l-.11,0-.06.08,0,0v0l-.11.07h0v0l-.06.05,0,0v0l-.08,0,0,0h-.14v0h0v0l0,0-.12,0h0l0-.07h0v0h0l0-.05v-.08l0,0v0l0,0,0,0h0l0,0,0,0Zm-1,.48h0l0,0v0l0,0v0h0v0h0l0,0v0h0l0,0h0l-.12.06v0l0,0h0l-.05.07v0l0,0h0l-.07.09v0l-.06,0h0v0l0,0v0l0,.06v0l0,0h0v0h0l0,0v0l0,0h0v0l0,0-.07.08h0l0,0v0l0,0v0l0-.08,0,.06h-.11v0l-.1,0,0,0-.13,0-.07,0,0,0h0v0l0,0h0v0h0l-.05,0h-.06v0h0l-.16,0,0,0-.06,0-.19-.11v0h0l-.09-.13-.09-.08,0,0,0,0h0l-.06-.15h0l0,0h0v-.09h0l0,0,0-.07,0,0,0-.1h0v0h0v0l0,0,0,0h0l0,0,.11-.06h.09v0h0l0,0,.06,0,.06,0v0h0v0l0,0h0v0l0,0,0,.06,0,0,.1.05h0l0,0h.07v0h.13v0l.09,0v0l0,0,0,0,0,0v0l0,0,.06,0v0h.06v0h0v0h.05v0h0v0h0l.06,0h0l0,0v0h0v0l0,0,0,0v0l0,0,0,.07,0-.05,0,0h0l.08,0,0,.06,0,0,0,0,0,0v0l0,0v0l0,0v0h0l0,0,.06.06h0l0,0h0l0,0,0,0h0l0,0h0v0h0l0,0,.08,0,.07,0v0l0,0v0h0l0,0,0,.06h0Z" transform="translate(-15.8 -16.24)"/><path class="cls-4" d="M45.27,33.77c-.17,0,.09-.1,0-.19l.08,0c0-.11,0-.22-.1-.37l0,0,0-.24-.1,0c.2-.25-.25-.33-.09-.55l0,0-.09-.13-.08.08-.08-.05h0c.06,0,.1,0,.13-.09l-.07,0c.1-.12-.15,0-.09-.09h0l-.1-.09H45c0-.06-.19,0-.12-.13l.07.06c.07-.1,0-.1,0-.15v-.11l0,0c-.24,0-.1-.12-.27-.14.17,0,.08,0,.17-.06l.06-.09c-.09,0,0-.1-.11-.11,0,0,0,0,.06-.07s0,0-.08.05,0-.26-.23-.33-.22,0-.31,0h0l.07-.07c0-.1-.08-.09-.14-.08l0-.09s-.08.1-.12,0l.1-.1-.21,0,.1-.09a.43.43,0,0,0-.16,0c.07,0,.06.06.05.09h0c0,.19.16,0,.23.07l-.07.09a3,3,0,0,0-.57-.17h0a1.33,1.33,0,0,0,0-.21h0a.19.19,0,0,0-.08-.17l-.11.09,0-.07h.09c0-.07-.08,0-.12,0l0-.08-.1.15c0-.06,0-.12,0-.15s0,.14,0,.18,0-.13-.09-.07l0-.08-.15.11c-.06-.08-.16,0-.18-.12l-.1.15c0-.21-.15.07-.19-.12,0,.18-.18.18-.24.31v0l-.15,0c.05.12,0,.19,0,.28-.13-.07,0-.15-.12-.24.06.09-.06.16,0,.22l-.15-.08c.09.14,0,.05,0,.15s-.12-.11-.16,0h0l.05.09c-.07.08-.11,0-.18-.06v.22l0,0c0,.12-.13.15-.09.3h0l.13.1s0,.1-.06.06l0-.06v.05c-.11,0,0-.07-.06-.12s0,.21-.07.23.06-.13-.07-.13l.09,0c-.18-.06,0,0-.14-.11s0,.14-.16.21l.11.11c0,.19-.32-.07-.28.12s.14.15,0,.2l-.09-.1c-.07.1.12.16,0,.23v-.1c-.12,0,0,.09,0,.15l-.1,0-.08.43-.09,0-.2.55.09.09h-.06c0,.07.06,0,.09.05l-.09,0c.07.14.14.36,0,.5l0,0c0,.11.19.1.09.2h0c-.06.22,0,.45-.13.59.14,0-.06.18.13.17-.1.11-.13.08-.2.22s.12.05.14.1h-.1l.11.07-.12,0,0,0,.08,0c.05.07-.09.17-.14.16l.06.18L40,35.42c.09.1-.11,0,0,.1l.08,0-.07.2-.07,0,0,.41s.16,0,.16,0H40c.06,0,0,0,.12,0s-.13,0-.16,0l0,.08-.09,0c.07,0-.11.12,0,.19h0l.05.41.15.09-.08.35c.05.08.08,0,.14,0s-.07.14-.13.09a.8.8,0,0,0,.21.34l.06-.06,0,.09h0c.19.13,0,.59.21.65l.16.07c0,.07-.08,0-.08.08.22,0,.16.23.34.27-.09.27.31.28.44.5v-.06c.07,0,0,.06.07.09v-.09a1.61,1.61,0,0,0,1.29-.13c.11-.07-.11-.3.09-.28l0,.12c.12-.26.44-.33.49-.46v.06c.07.06.1-.05.08-.12l.05.08s0-.14.07-.08v0l0-.13.13-.09c.62-.43.3-.21.33-.38.12.09.17-.09.13-.18l.11,0c0-.06,0-.14,0-.16.21,0,0-.29.2-.26l.06-.58c.15,0-.06.18.09.23,0-.18-.09-.29,0-.43l.07.06c0-.16.11-.27.08-.43l0,0s0-.05,0-.07v0c-.11,0-.16-.18-.2-.21.16.12.09-.11.29.06L44.73,36l.09,0,0-.18.07.06c0-.07-.09-.14,0-.2l0,0c0-.13-.08-.29,0-.4.12.1.06,0,.18,0v-.09h-.07l0-.2,0,.07L45,35l-.07.05c0-.09-.15,0-.09-.12l.1-.07v-.13l.15.05c-.09-.07,0-.16-.07-.23l.09,0-.07-.05h.1c0-.09-.16,0-.06-.1l0,0,.09-.31c.13,0,0,.09.11.09s-.07-.34,0-.49Zm-.51-.53v.28l0,0-.08.08v0h-.06l0,0-.06,0v0l-.07,0h0v.06l-.18.05c0-.05-.1.06-.12,0l0,.08v0l0,0,0-.1-.05.09,0,0,0,0h0l-.06.09v0l0,0,0,0,0,0h0v0h0l-.06.1h0l-.06.06h-.07v0l0,.07h0l-.09,0h0l-.16,0v0h0l0,0h-.08l0-.05-.09.05,0,0,0,0v0h0L43,34,43,34l-.07,0,0,0h0l0,0H43l0,0-.07,0v0l-.07,0h-.06l0,0v0h0l0,0-.06,0v0h0l0-.07,0,0v0l-.06,0v0l0-.07,0,0v0h0l0,0-.06,0-.07,0v-.08l0,0-.09-.11h0l0,0v0l0-.06h0l0,0,0,0-.06-.07h0L42.14,33h0l-.05,0v0l0,0,0,0h0v0h0l0,0h0v-.09h0l0,0h0v0l0,0,0-.06h0l.05-.08h0a.86.86,0,0,1,.21.42c0,.16.36.4.56.55a1,1,0,0,0,1,0c.09-.05.64-.12.64-.25s-.15-.5-.17-.63-.65-.32-.84-.43a2.67,2.67,0,0,0-1.34.18h0l.06-.05,0,0h0l0,0h0l0,0v0h0l0-.05v0h0a.55.55,0,0,1,.2-.19h0v0h0l0,0,0-.07.07,0,0,0v0h.05v0l.12,0v0l0,0,0,0,.32-.06h.06c.06,0,.12-.08.18,0h0v0h.07v0h.14v.1l0,0h0l0,0,0,0h0l0,0h.11l0,.06,0,0v0l.08,0h0l0,.05h0l0,0h.07l0,0,.08,0,.09,0h0l.13.11,0,0h.1l.06.1h0l0,0v.19l.05,0v.11h0v.2l.13.11h0l0,.08.11.08h0l0,.05h0l0,0Zm-1.4-.59c.24,0,.34.24.26.38s-.23,0-.37-.14S43.22,32.62,43.36,32.64Z" transform="translate(-15.8 -16.24)"/><path class="cls-4" d="M55.88,32.87s-.1,0-.05-.08h.05l-.07-.11.06,0c0-.16-.16-.21-.21-.33a.22.22,0,0,0,.18-.21h0c0-.17-.19-.25-.28-.38.14-.13,0-.35,0-.57l-.12,0c0-.05-.13,0,0-.12h0c.1-.11,0-.14,0-.2l-.14.11c0-.31-.4-.23-.3-.44h-.14l.06-.07-.2-.17.06,0s-.23.17-.28.13l.07-.12c-.1-.07-.12-.24-.28-.2l.06,0s-.11-.2-.21,0c.07-.1-.09-.08-.17-.07l.06-.07L53.7,30l0,0c0-.07-.09,0-.11,0l.06,0-.12,0c-.05,0-.07-.09,0-.16l-.12,0,.05,0c0-.1-.18,0-.17-.13l0,0,.09.1c.05-.06,0-.12.13-.17-.08,0-.23.06-.25,0v0h0l0,0,0-.05c0-.06,0-.08,0-.1l-.1.12h0l.06,0-.08,0-.13.08.09-.3c-.11,0-.19-.13-.35,0l0-.09h.06c-.07,0-.13-.1-.22,0,0-.09.1-.06,0-.11l0,0c0-.27-.44,0-.42-.31v0c-.11-.24-.41-.28-.51-.54,0-.06-.1,0-.18,0l0-.09-.13.07c-.13,0-.05-.29-.26-.2V28S51,28,51,27.92l0,0,0,0-.14,0c-.08-.07.07-.2-.06-.26s-.17.1-.15.14l0,.1h0v0h0a.89.89,0,0,0-.5,0h0l-.05,0,0,0c-.08,0,0,.07-.06,0v.05l0-.08c-.1,0,0,.2-.09.16a.09.09,0,0,0,0,.08.7.7,0,0,0,0,.09l-.1,0,.08.06h-.06l.06,0v.05s0,.12-.14.09c.06,0,.08,0,.1,0h0c-.17,0,0,.07-.1.1s0-.07-.11,0c.13.06,0,.1,0,.16H49.5l.1,0c.06,0,.05.1.1.16s0,.15,0,.24h0c.12,0,.12.07.16.12h-.14l0,.06.09,0-.09,0c0,.08.14.1.12.22l.15-.11v0l0,0,0,0h-.08l.06,0-.08.08v0l0,.15.1,0s0,.06,0,.11l.12,0,0,.07c.06,0,.12.11.18,0h0c.15,0,.12.2.23.25l0,0,.2.08,0,.1c.05,0,.08,0,.1.09h-.07c0,.07,0,.12.11.1-.08,0,0,.11,0,.12v-.08l.07.07-.09.07c0,.19.33,0,.25.23.08,0,0-.09.07-.13s0,.21,0,.23.17-.07.2,0l.15-.1c0,.05-.06.17-.11.17v0l0,0s0,.07,0,.1l0,0,.12.17,0-.06c.05.12.09,0,.16,0s-.11.09,0,.11l-.1.1c.1,0,.07.13.09.17h0l.06,0,0-.07v.06l.16-.13c0,.05.1,0,0,.11,0-.09-.06.08-.13,0l0,0h0c0,.13.11-.06.18,0l0,0,.09,0c0,.07.07,0,.09,0v0H52l-.05,0c.11,0,0,.15.09.14l-.08.12c.11,0,0,.11.09.12l.12-.08-.13,0,.14,0-.1,0,.09-.07c0,.12.12,0,.11.12l-.14.14c0,.12.18,0,.23.16v0c.07,0,.05,0,.1,0l-.08.11s0,.06.15,0l0,.09c0,.09.21,0,.25,0l-.17.07.06,0s.12,0,.09.06h.11l0,0,.11,0c-.11.19.19.19.1.36l.18.13h0c0,.11.18-.08.19,0s-.08,0-.09,0,.1.07.05.21h0c0,.09.14,0,.19.11l0,0,.31,0-.1.09.15-.09,0,.19-.06,0c0,.12.07.05.09.09l0,0c.1.05.17-.05.25,0v0c.12-.07,0,.09.1,0l-.05.12h.24l-.24.08s.12.08.16,0h-.05l.27-.08c-.08.25.25.09.38.27l.47-.29c-.18-.1,0,0-.1-.19l0,0h.18l0,.09c.08-.07.1,0,.19,0-.07,0-.06-.09,0-.12h-.13c0-.16.24,0,.19-.21l0,.08c0-.09.09-.31,0-.42l.09,0c.08-.21-.1-.42,0-.52Zm-5-2.91c0,.05,0,.23,0,.39h0l-.08-.07,0,0h0l0-.09h-.05l-.07-.09h0l0,0h0l0-.12h0v-.06h0v0l0,0,0-.05,0-.05h0v0h0l0,0h0l0,0,.06-.06,0-.07.13-.11h0v0h0l.09-.09h0v0l.15-.07h0l.06-.07,0,0,0,0v0l0-.05v0h.08v0l.06,0v0h0v0l0-.06v0h0v0h0l.07,0h0l0,0,0,0v0h0v0l0,0,0,0,0,0,0-.05V29l0-.07,0,0h0l.1,0,0,.06,0,0,0,0h.05l0,0v0l0,0,0,0,0,0v0h0v0h0l-.06.1h0l0,0v0h0l0,0h0v0h0l0,0-.05,0,.08.07h0l0,0h0v0h0l0,0h.05l0,0h0v0l0,0h0l-.17-.06a.82.82,0,0,0-.77.2C51.06,29.58,50.81,29.8,50.84,30Zm.77-.09a.37.37,0,0,1-.23.26c-.11,0-.11,0-.06-.15s0-.15.07-.2A.14.14,0,0,1,51.6,29.87Zm1,.29h0v.05h0v0h0l0,0h0l0,0v0l0,0h0v0h-.05l-.05.11v0l0,.06v0l0,0v0l-.05-.06v.08h0v0h0l-.09.07v0l-.07.09,0-.06-.09.1H52v0l0,0h-.06l0,0h0l-.08,0,0,0h0l-.05,0v0l-.06,0v0l-.23,0,0,0h-.07l-.21-.18v0l-.08-.09h.28a1.13,1.13,0,0,0,.87-.52,2.22,2.22,0,0,0,.13-.56h.07l0,0h0l0,0,0,0h0l0,.15h0v.06h0l.06.09h0v0h0l.07.12,0,0,0,.09h0l0,0h0Z" transform="translate(-15.8 -16.24)"/><path class="cls-4" d="M25.79,47.19c-.15,0,.29-.09.29-.09l0,.14c.08-.11.31.18.42,0v0c.39.05.58,0,.9,0,0-.14.15-.09.27-.19l.78.25c.23,0,.09-.1.2-.17,0,.13.29.17.12.23a4.35,4.35,0,0,0,.95,0c0-.06-.09-.09-.05-.13s.18.08.15.14h0c.5-.11.82.38,1.13.52a4.27,4.27,0,0,0,1,.31,1.79,1.79,0,0,0,.53.34c0,.51.93.58,1.16,1l0-.09c.13,0,.09.11.16.17s-.07-.13,0-.14a5.81,5.81,0,0,0,2.93.75c.31,0,.14-.46.54-.26l-.1.17c.5-.19,1.39,0,2.14-.31l-.1.1c.19.17.65-.33.58-.38.13-.07.08.05.18,0s.3-.42.47-.41l0,.09c.11-.1.32-.44.15-.41a1.2,1.2,0,0,0,.17-.39c.11,0,.11-.38.11-.38,0-.16.18-.35,0-.43.22.08.29-.4.2-.58.06.07.09-.13.18,0,0-.19,0-.37-.1-.35.32-.35-.16-.77.16-.81-.25-.23-.47-1-.5-.76s-.11-.86-.11-.86c.22,0-.08-.19-.14-.63,0-.12,0-.1.06-.07-.22-.41-.06-.69-.38-1.08l.09.07c0-.08-.05-.2-.14-.15l.06.07c-.08.18-.42-.19-.49-.16.19,0,.12-.15.12-.26.08,0,.22.11.17.12.11,0,.06,0,0-.05l.46.21v0l.08,0a.2.2,0,0,0,.1.26l-.07,0a.28.28,0,0,0,.17,0l.08.17s-.06-.06-.09-.06V43l.08,0,.05.11a.11.11,0,0,1,0,.05l-.05-.06c-.14.14.14.27.18.42h-.15l0,0,.12.08a.11.11,0,0,1-.07,0,.06.06,0,0,1-.06,0c0,.13.08.07,0,.19h0l.08.08s-.09,0-.09,0c0,.2.2.25.13.36h0c.1.17.11.08.18.08a.2.2,0,0,1,.1.05l-.06.07-.13.14h.1l0,.09c.1.07,0,0,.12,0s.16.33,0,.41c.09,0,0-.14.11,0-.15.09.08.14,0,.28s-.09-.13-.12,0c.17,0,0,.23.1.32l-.06,0h.14c0,.07.07.2.13.31a3.82,3.82,0,0,0-.08.46h0c.12,0,.12.17.13.29l-.13-.1v.11l.06.13-.09,0c-.1.17.56.56.54.45s0-.16,0-.22h0l.07,0h0l0,.06h.1l-.09.06c.08.05.06-.05.12,0l0,.11-.08,0,.17.15.08-.08c.14,0,0,.09.1.14s.13,0,.16-.07l.06.08c.09,0,.39,0,.31-.08h0v0c.26-.08.54.13.79,0v0l.43-.14.1.09a.42.42,0,0,1,.29,0c-.1.08,0,0-.11.06.15,0,.19,0,.34-.07,0,.09.13.08.19,0l-.11,0,.22,0,0,.12c.33.07.48-.3.71-.11.07-.09-.15,0-.09-.13l.31.15c.19.06.18-.16.38-.11,0,0,0-.15.1-.18s.17.17.08.2l0,0s-.1,0-.05.07l0,0c.07,0,.26,0,.21.11.11,0,0-.06,0-.08l.46,0,0-.07c.27.05.12-.07.3-.09s0,.14.15.1,0,.11,0,.13c.17-.07.31.06.41.07l-.1,0,.15,0-.06-.07.11,0c.06-.06,0-.13.07-.21s.22-.06.25,0c-.24,0,0,.1-.16.14h.15l0,0c.24.07.1-.12.32-.15l0,0a.17.17,0,0,1,.07-.1c.14,0,.14-.06.22-.06H48.9l.18-.1,0,.06c.09-.12.26.07.39,0l.09.13c.15-.1.19.06.35,0-.06-.07-.06,0,0-.14l-.27.09L49.8,47l-.23.07c.08-.07.07-.05,0-.12.13.1.22-.1.37,0l0,.2c.21.06.36-.15.57-.09l-.07,0c0-.08.14,0,.22,0l0,.13c0-.06.18,0,.24-.1l.1.11c.21.08.29-.14.49-.08-.08.06,0,.12-.14.15h.14s.21,0,.26,0L52,47v0s.13,0,.07-.11c.2.22.61,0,.79.23l.47,0,0,0c.19.07.12-.18.34-.11s-.12.05,0,.1.06.1.13.09h.19a.15.15,0,0,1,.09,0h0c.11.08.28-.07.46,0v0l.54-.14-.05.12c.08,0,0-.14.14-.15l.16.19H55c.07.12.19,0,.27,0v.05c.22,0,.24-.13.48-.1l0,0c.14-.12.1.08.24,0l0,.14a2.45,2.45,0,0,1,.47-.08l-.4.15c.08,0,.28,0,.33,0h-.11a.55.55,0,0,1,.43-.09c-.09.23.43.15.52.37.34-.05.59.22,1,.17-.13-.2.12,0,.1-.21h.13l.28.12c.07.06-.08,0-.07.09.21,0,.09.08.24.13,0-.07.06-.1.18-.08l-.18-.09c.26-.12.3.16.5,0l-.06.07c.11,0,.43,0,.54-.2v.09c.3,0,.75-.29,1-.24v.05l.18-.09,0,0,.21-.17,0,.09c.34-.1.41-.36.63-.51.09.15.32-.09.44-.21l.16-.22.05-.09v0l0-.09h0l0,0v-.06l0,0v0c.1.1.07-.11.11-.14l.05.1v-.11l.06.08.08,0h0v-.05l0,.05c.11,0,0-.15.12-.13h0c0-.12-.06,0-.1-.17l.19,0-.06,0h0l-.06-.06c.08,0,0-.16.15-.11,0,0-.06,0-.07,0s0-.08.09-.09l.08.05c-.09-.08.07-.08.07-.13l0,0-.08-.06s0-.08,0-.14.1-.1.16-.16h0c-.08,0,0-.11,0-.16l.07.08,0,0,0-.07.06,0c0-.06,0-.15.06-.21s-.19,0-.2-.1l.1.05v0l0,.05,0-.06h.08v0l.1-.06-.06,0,.1,0-.05-.08h.06s0-.15,0-.14h0c0-.13.11-.2.11-.32h0v-.2h.08l0-.12v.06c0-.05.08-.06,0-.14s.09,0,.08-.06l-.06,0,0-.09.07,0c.14-.1-.09-.27.1-.33h-.12l.17-.1c.07-.07-.09-.11,0-.18L64.29,43c0-.05.13,0,.15,0l0,0,0,0s0-.06.06-.07h0l.07-.19h-.05c.06-.11,0-.06,0-.14s.1,0,.08,0l.1,0c0-.08.06-.13.08-.17l0,0v-.06h-.06l0,0-.14-.06s0-.1.06-.09.08,0,.08.09v-.06h0c.09-.08-.08-.06-.06-.15l.08,0-.1,0v-.1l0,0,0-.09,0,0c-.07-.06.1-.09.06-.16h.11c0-.08.08-.07,0-.15l-.1,0,0,.13-.07-.09v.11l-.08,0c.1,0,0-.11,0-.16l.14,0c.08-.08,0-.17,0-.28l0,0,0-.12.1,0s0-.09-.09-.11l.07,0c0-.09-.14-.12-.12-.21l.12.05,0-.06v-.12h0l-.07-.05h0l-.09,0c.16-.09,0-.26.13-.34l0-.21h0c0-.09-.14,0-.09-.14s0,0,.07,0,0-.12.08-.18h0c.05-.05,0-.12-.05-.2h0l-.17-.22h.1l-.13,0,.12-.09,0,.06c.08,0,0-.08,0-.12h0l-.14-.19,0,0c-.11,0,0-.06,0-.1l.09,0-.15-.18.18.14-.05-.09-.14-.16c.19,0,0-.21.14-.3l-.11-.42c-.12.1,0,0-.16,0l0-.05,0-.13h.07l.07-.12-.08-.05,0,.08c-.12-.08.09-.13,0-.22l.06,0s-.07-.21-.2-.21l.06,0c0-.14-.22-.24-.2-.37h0l-.06-.06,0,0L64,36.6h0c0-.14-.18-.15-.25-.24.1,0,.09-.16.08-.21h0c0-.15-.2-.2-.33-.31.05-.13-.14-.28-.16-.44l-.1,0s-.12,0,0-.09h0c.07-.07,0-.12,0-.17l-.11.07c.07-.23-.28-.27-.19-.44l-.12-.05.06,0-.16-.22.05,0c0-.05-.21.08-.26,0l.06-.09c-.08-.08-.1-.22-.26-.24l.05,0s-.1-.2-.19-.08c.07-.07-.08-.09-.15-.1l.05,0h-.19l0,0c0-.07-.08,0-.11-.06h-.06l0-.14h-.1l0,0c0-.1-.16,0-.17-.14l0,0,.09.1s0-.1.1-.13l-.23-.05v0h0l0,0,0-.05v0h0l0,0h0l0-.06-.07.09h0l.06.05-.08,0-.1.05,0-.25c-.1,0-.2-.12-.33-.05V33H61c-.06,0-.14-.09-.21,0s.08,0,0-.09l0,0c-.07-.23-.39,0-.44-.27v0c-.15-.21-.43-.24-.57-.47,0-.06-.08,0-.14,0l0-.07-.1,0c-.12,0-.08-.25-.24-.2V32s-.14,0-.11-.09h0v0h-.12c-.07-.07.06-.14-.05-.21s-.16,0-.14.08l0,.08h0s0,.09,0,.14V32h0l-.08-.19,0,0c0,.05,0,.12,0,.07l0-.16a2.19,2.19,0,0,1-.1-.47l0,0c0,.21.07.38.06.37s0-.18.1-.06L58.62,31v0l0-.1,0-.13s-.06-.19-.09-.27-.08-.09-.07,0l0,.07,0,0h0l.08.2-.11-.21h0a2.17,2.17,0,0,0-.12-.27.62.62,0,0,1,0-.21,4.72,4.72,0,0,0-.34-.62l0-.06,0,0v-.08l.06.1c-.05-.08-.11-.22-.16-.32a1.28,1.28,0,0,0-.08-.16s0,0,0-.09l0,0a1.42,1.42,0,0,0-.35-.53l-.19-.26v0L57.06,28l0-.05h0a1.29,1.29,0,0,1-.12-.24l0,.07-.28-.41a.67.67,0,0,0-.08-.15h0l-.11-.2,0,.06-.06,0-.23-.35s0,0,0,0l0-.12c-.1-.06-.09-.16-.23-.24,0,0-.07-.09,0-.1s0,0,0,0l0-.07a.44.44,0,0,0-.13-.14l-.09-.12h0a1.11,1.11,0,0,0-.25-.28l-.09-.08a1,1,0,0,0-.29-.39v.06l-.2-.25v0l0,0,0,0,0,0,0,0,.06,0-.29-.23s.08,0,.12,0l-.13-.12s0,0-.09-.18l0,0c.08-.1,0-.31.13-.37H54.4c-.11-.12,0-.1,0-.19l.24.11c-.08-.06.08-.11-.12-.27l.19,0c.14-.09-.23-.34-.12-.42l.26.22s.07-.06,0-.11c.09,0-.09-.19,0-.17,0,0-.16-.1-.13-.14l.06,0c-.06,0-.06-.11-.2-.13.41,0,.07-.35.43-.35v-.31l0,0c.15-.09-.35-.15-.18-.25s.09.09.18.06c.43.06,0-.17.26-.22l0,0c.18-.06-.14-.19-.12-.3h.06a.79.79,0,0,1-.38-.33c.17,0,.09,0,.26,0,0,0-.27,0-.33-.07a1.07,1.07,0,0,1,.35-.13l0,.09c.23-.06,0-.12,0-.17h.1c0-.15-.31-.12-.3-.27l-.08,0c-.26,0,.14-.09-.06-.14l.26-.07-.33-.22.42.14a.2.2,0,0,0-.12-.16s0,0,0,0a.42.42,0,0,1-.36-.16c.5-.14,0-.28.32-.5-.27-.1-.13-.39-.28-.59-.3.28,0-.06-.38.17l0-.07h0l.12-.27c.08-.1.1,0,.17-.06s.11-.14.16-.28c-.11.1-.19.09-.18,0l-.1.2c-.26,0,.19-.34-.07-.35l.13,0c-.09,0-.22-.25-.52-.07l.13-.13c-.13-.17-.58,0-.57-.27l.08-.07s-.17.1-.14,0l.07-.08s-.19.07-.19,0l.1-.06c-.08-.23-.4,0-.56,0a.47.47,0,0,0,.06-.5l0,0c-.16-.19-.45,0-.7,0,0-.33-.35-.28-.49-.52a.32.32,0,0,1-.13.23c0-.07-.19.15-.1-.1h0c0-.26-.07-.23-.15-.27l-.11.33c-.06-.56-.54,0-.55-.48l-.2.17,0-.19a.6.6,0,0,0-.42,0l0-.14c-.11,0-.15.55-.24.56l0-.28c-.17,0-.4-.22-.54,0l0-.13c-.08,0-.38-.16-.26.21-.06-.25-.2,0-.25.1l0-.18c0,.23,0,.3-.06.41a.12.12,0,0,1,0-.1c-.06,0,0,.19-.1.15v-.13c-.08,0-.05.09,0,.24s-.16,0-.25-.1c0,.1.06.24,0,.23l0-.12c-.19,0-.08.3-.26.2l-.08-.08c.11-.06.2-.1.19-.09-.08-.15-.19-.12-.24-.36,0,.16,0,.46-.1.45l0,0v0l0,.06h-.1c-.1-.11-.15,0-.2,0,.13.14.05.15.2.24v-.06l.09-.07c0,.1,0,.18-.07.12l.14.26c-.22-.17-.43-.2-.56-.3,0,.19-.16.35.06.64,0,.06-.1,0-.16,0l0-.1c0,.13-.11.23.08.38-.15,0-.15-.17-.2,0l-.05-.06c-.5.07.3.66-.29.71H47c-.29.28.07.72-.34,1-.09.09.07.11.18.17l-.21,0,.22.1c.2.11-.43.3-.07.45l.13,0c0,.07.12.18,0,.21,0,0,.14,0,.08,0l-.1,0L47,21c0,.15-.39.14-.35.34a.41.41,0,0,0,.38,0l.13-.15.06,0,0,0h0a1.89,1.89,0,0,0,.44.47l0,0,0,0,.07.05s-.05,0-.07,0,.1,0,0,.12l0,0,.1,0s-.11.16-.12.11c0,.19.27-.07.18.12h0c.13,0,.14-.08.22-.18l.06,0-.14.3.12-.16,0,.11c.12-.08,0-.08.14-.17,0,.2.22,0,.06.32.1-.12,0-.14.13-.19-.16.31.11,0,.08.17s-.12,0-.14.2c.19-.24.08.13.16.11.13-.21.16,0,.28-.05,0,.07.09.2.13.32l0,0c.13-.2.19-.12.27-.13a.5.5,0,0,1-.17.21l.06,0,.14-.09-.1.15c.08,0,.25-.1.27,0,.06-.1.12-.27.2-.38l0,0a.3.3,0,0,1-.09.1h.06l-.12.11c0,.08.09-.1.11-.07l-.08.18,0,0,0,.22.13-.15c.07,0-.06.14-.06.22s.05,0,.17-.13l-.05.14c.07-.06.18.07.26-.12v0h0c.24-.09.22.24.4.24l0,.06c.12,0,.21.06.32-.05s0,.13,0,.2.11-.09.16,0c-.1.08,0,.1-.09.06s0,.19.19.05c-.09.14,0,.22,0,.19V24L51,24l-.1.2c.08.32.45-.32.43.15.09-.13-.06-.14,0-.29.06.06,0,.39.07.39s.2-.28.29-.17c0-.08.05-.28.16-.33s0,.34-.06.39l0,0,0,.07c0,.08.13.11.07.22.08-.05.06-.12,0-.17.07.14.16,0,.25.15l0-.13c.13.14.1-.13.21-.13s-.08.27,0,.2c0,.1,0,.21-.07.27.13-.12.16.15.26.18l-.09.06.13,0,0-.16.07.1c.05-.1,0-.26.09-.4.05.08.16-.08.18.13-.18-.08,0,.21-.14.24H53l0,.05c.2.19.08-.23.26-.23,0,.12.08.22.1.19s-.06-.19,0-.28c.13.09.1-.07.16-.06l-.07,0c0-.11,0-.1.1-.14v.1c0-.18.23.13.29-.05l.17.22c0-.17.15,0,.23-.08l.07.07v0l-.06-.06h0l0,0v.05l.05,0,0,.09.18.09s-.1,0,0,.08,0-.11.11,0,0,.09.09.15h-.06c.08.06.17.19.23.2s.21.25.15.29l.21.16c-.17-.07.2.26.11.29.14,0,.3.31.47.45l0,0,.11.21c.06,0,.17.09.25.15s0,0,0,0l0,0c0,.06-.12-.07-.14,0s.18.18.19.11c0,.12,0,.09,0,.17s.07.08.16.13,0,.08.08.21-.08,0-.08,0c.1.15.1,0,.15,0,.13.17,0,.11,0,.19l.24.24,0,0c.12.09.24.35.38.46v0l0,0,.09.12s-.05-.07-.07-.06l.31.38s-.18-.24-.13-.07l-.09-.17c0,.17-.06-.1-.07.06s.2.22.28.46h.08l.06.12a.06.06,0,0,0,0,0h0c.05.17-.05.22.08.39s.14,0,.18.24l-.08,0c.09.23.14.1.2.35,0,0-.09-.17-.09-.14s.08.1.13.22l0,0,.39.76s-.06-.05,0,0a4.59,4.59,0,0,1,.2,1.13l.07.13,0,0c0,.14,0,0,.06.06s0,.11,0,.06.07.22.11.35a.15.15,0,0,1,0,0h0l0,.14a.53.53,0,0,0,0,.12.33.33,0,0,0,.06.19.78.78,0,0,1,0,.1l0,0a1.19,1.19,0,0,0,.07.26s0,0,0,0l0,0c0,.08,0,.3,0,.25,0,.12,0,0,0,0l0,.54,0,0a3.05,3.05,0,0,1,0,.53l0-.05,0,.47,0-.1v.16l0-.05,0,.11c0,.05.05,0,.08.05s0,.14,0,.2,0,0,0-.09v.12c-.06.11,0,.14,0,.17l0,.05v.12a.14.14,0,0,0-.06.09c0-.09.06,0,.06,0h0v.15h0l-.08.06,0,.11.06-.07a.76.76,0,0,1-.18.38l0,.17a.44.44,0,0,1,0,.15v-.07c0,.22-.06,0-.08.22h0a.5.5,0,0,0,0,.07l0,0a1.91,1.91,0,0,0-.15.42l0,0a3.14,3.14,0,0,1-.55.76c.06,0,.08,0,.09,0l0,.07h0c0,.05,0,0,0,0h0a.13.13,0,0,1,0,0c-.09.09-.1,0-.07,0l-.08.13v-.05c0,.07-.21.16-.22.26h0c-.21.25-.29.37-.47.58l-.07.2-.52.41c-.12.12,0,.06-.06.13s-.23.12-.15,0c-.23.18-.29.23-.57.48h0l0,0,0,0v0a1.46,1.46,0,0,1-.18.14h0a.41.41,0,0,0-.13.09,3.64,3.64,0,0,0-.74.5l-.26.21c-.14.08.06-.08-.05,0-.28.25-.5.29-.74.49-.26,0-.7.45-1,.48l0,0-.15,0s.09,0,.05,0a5.75,5.75,0,0,1-2,.61H50a.23.23,0,0,0-.1.05h0l-.07,0-.16,0,0,0-.25,0,.07,0c-.11,0-.36,0-.54.1l-.85.08.08,0a.67.67,0,0,0-.4,0c-.08,0,0,0-.07,0l-.33,0,0,0c-.06,0-.28,0-.27,0h-.51a.84.84,0,0,1-.28,0,1.84,1.84,0,0,0-.3,0h-.29s0,0,0,0a.57.57,0,0,0-.23,0H45.5c-.21-.07-.44,0-.54-.11l-.29,0-.47-.16h0l-.12,0-.19-.07s0,0,0,0l-.32-.07s0,0,0,0h0c0-.08-.23-.12-.37-.16l0,0L43,43a4.06,4.06,0,0,0-.51-.15h0a.9.9,0,0,1-.4-.17l-.29,0,0,0c-.23-.09-.37-.12-.64-.23h.07c-.15-.07-.25,0-.39,0v-.08a4.53,4.53,0,0,0-.9-.37H40c-.2-.07-.42-.27-.45-.17s0,0,0,0h.13a.68.68,0,0,1-.45-.3h.09c-.3-.27-.57-.39-.89-.64.23-.11-.08-.13,0-.29l-.23-.07,0,.12a.71.71,0,0,0-.2-.08s0-.08,0-.05l-.31-.09h.13l-.33-.16.11.13-.14,0v0h0l-.1,0L37.27,40h0s-.08-.06-.11,0l-.2-.08s-.11,0,0,.07h0l0,0H37l-.08,0-.07,0,.11-.22c-.14.09-.38-.09-.55,0h0l.07-.1-.12.08h0c-.05-.06-.06-.09,0-.15-.16-.08-.11,0-.14.09l-.09,0,0,0,.08,0a3.43,3.43,0,0,0-.66-.24s0,0-.08-.05h0l-.13-.09c0-.11.24.08.21-.08-.35-.12-.77-.13-1.11-.27a1.52,1.52,0,0,1-.25-.16l.05,0-.23-.15s0,0,0,0l-.19-.09h0l0,0h0l-.32-.2s0,0,0-.06l0-.09c-.11,0-.09-.11-.26-.17v-.08c0-.13,0-.15,0-.15-.09-.19,0-.21-.12-.49v-.2a.25.25,0,0,0,0-.42l.07,0c0-.06-.11-.12,0-.15l0,0s0-.15-.09-.12V36c-.11-.06.09-.16-.06-.2.15,0,.16-.15.11-.23h.12L33,35.39c.22-.14,0-.4.19-.5-.4,0-.53-.15-.53-.15s-.28.42-.57.34c0-.1-.2,0-.2,0l0-.09c-.13.07-.31,0-.49,0h0a1.67,1.67,0,0,0-.19.23.15.15,0,0,0-.08-.23.82.82,0,0,1-.2,0l.05-.08c-.07.05-.15.1-.23.05l0,0c-.17,0-.32.1-.49,0,.09-.13-.08,0-.05-.11h-.06l-.17,0h-.17l.08.07c-.1,0,0,.16-.14.1s-.09,0-.11-.1h-.16l0-.16c-.07.09-.21,0-.29.08l0-.1-.06.08v-.1c-.11,0,0,.16-.13.06l0,0c-.13-.07-.3,0-.39-.11s.1,0,.1-.1c-.15-.07-.38,0-.52-.16l0,0c-.11.15-.07-.14-.19-.11l.06-.06C28.15,34,28,34,27.8,34l.05,0-.2-.16-.11.05c0-.25-.43-.26-.41-.54h.06L27,33.22l-.05.11-.15-.05c.1,0,.11-.07.12-.12l-.06,0c.08-.16-.14.07-.12-.1h0L26.7,33c.07-.06.06,0,.13,0s-.22-.06-.17-.15l.09.08c.06-.11,0-.11,0-.16h0v-.09c-.27,0-.12-.15-.28-.24.16.08.08,0,.19,0l.08-.09c-.09,0,.05-.1-.08-.16,0,0,0,0,0,0s.1-.28-.09-.43l-.21-.31c.06,0,.12,0,.12,0v-.18l-.12,0s-.07-.07-.07-.1l.07,0c0-.14,0-.3,0-.46a.07.07,0,0,0,.1,0l.09,0a.15.15,0,0,0,0,.1v0l0,0h0a.38.38,0,0,0,0,.09h-.05l0-.05c-.2,0,.14.26.14.26a.13.13,0,0,1,0,0h0a.21.21,0,0,1-.07.09l.11,0c.12,0-.06.07-.08.11l.16-.06a3.92,3.92,0,0,1,.2,1.16c0,.17.52,0,.34.26l-.22,0c.3.16.36.62.8.74l-.12,0c-.06.17.21.22.29.11,0,0-.07.1-.08.18s.27,0,.21.13l-.06,0c.08,0,.18.18.23,0,.06.18.23,0,.26.18.14-.16.13.16.27-.1-.14.27.08.29.19.19-.06.08.07.07,0,.18.08,0,.12,0,.16-.11,0,.39.49-.18.5.24l.49-.09c-.09.29.09,0,.25.1s-.06.12-.09.16c.21-.07.35.12.55,0a3.51,3.51,0,0,0,.24-.46c-.13.37.07.1,0,.52l.06-.09v.1c.13-.05.1-.12.21-.1l-.06.16c.08-.12.15-.23.23-.16l0,.08c.16,0,.31-.29.46-.14-.08.28.11.16.11.16s.2-.18.3-.1,0,0,0,0,0-.31.08-.25.08,0,.18.14c0-.08,0-.16.12-.11l.11.1c0-.11.14,0,.08-.22l.09.19L33,34.34l.12.13c.11-.07-.19-.24,0-.23v.08c.16-.06.14-.3.29-.35.22.13,0,.14.15.25.12-.23.09-.53.19-.66l0,0c-.31-.18.2,0,.08-.19a.45.45,0,0,0,.13.09c.09-.09,0-.26,0-.47l.08.05.17-.21c-.08-.05-.05-.09-.18-.11.57,0-.12-.49.36-.55l.06.06,0-.19c-.15,0-.1,0-.22,0L34,31.91c.08.1.24.06.33.05l-.14,0c.28,0-.3-.09-.09-.16l.08,0c0-.05-.12-.12-.09-.16s.07.07.21.1-.3-.21-.12-.23l.08.12c.21,0,.17,0,.21-.08l.11-.09-.06,0c-.43-.18,0-.19-.32-.36.26.17.16.05.36.1l.18,0c-.15-.09.15-.06-.07-.19.06,0,0-.06.18,0,0-.08-.11,0-.19,0s.32-.21.05-.41l-.38-.32v0a.38.38,0,0,1,.19.06c.1-.05.09-.11,0-.18h.18c0-.05-.23-.06-.13-.12l.25.08-.22-.21.24.08a.54.54,0,0,0-.13-.16c.09.06-.09.07-.15.07l0,0c-.38,0,0,.18,0,.27l-.21,0c0-.27,0-.3.5-.43.13,0-.44-.25-.44-.25l.31,0s0,0,0,0l.22,0-.05-.06h0a.44.44,0,0,0,.32-.11l-.23-.11.14,0,0,.1c.12-.07,0-.1-.11-.13L35.1,29l-.33-.08c.11,0,.26,0,.29-.08-.16,0-.25.1-.37,0,.12-.08.24-.09.09-.13H35c-.12,0-.1-.16-.27-.14.14-.11-.12-.18.15-.28-.07,0-.26,0-.29-.07.36,0-.07-.21.27-.36-.31.08-.25-.21-.46-.23h.06l0-.21c-.21.16-.34.12-.5.19.13-.22.27-.17.43-.34-.16.14-.27,0-.38.17a.62.62,0,0,1,.15-.25c-.25.21-.09,0-.27.1a.36.36,0,0,1,0-.1h0v0c0-.06.07-.09,0-.1l0-.09a.36.36,0,0,1,.11,0s-.09,0-.14,0l0,0a2.05,2.05,0,0,1-.17.16c-.14,0,.08-.17.13-.29-.11,0-.31.12-.34.08l.07-.08c-.19.1-.2-.15-.43,0l0-.06-.19.28s-.15.08-.07-.07l.1-.06-.08,0c.1-.22.1,0,.2-.16-.12,0-.31.09-.33,0s.17,0,.21-.19l0,.14c.14-.35,0,.06.2-.3-.09-.15-.2,0-.29-.17l-.18.25c-.27.07.15-.6-.13-.43-.1.1-.24.35-.28.18l.15-.22c-.14-.07-.23.31-.31.1s.15,0,.14-.08c0-.22-.13.11-.2.09l.07-.21-.57.08,0-.2c-.24,0-.46-.16-.67-.35l-.1.17v-.13c-.08-.1,0,.12-.05.19s-.06-.13,0-.18c-.16.14-.39.39-.55.19l0-.06c-.12-.07-.1.41-.22.25l0,0c-.27,0-.47.12-.76-.06,0,.29-.33,0-.2.39C29,26.11,29,26,28.73,26c-.08,0,0,.26,0,.33l-.12-.17,0,.23-.19-.16v.09l.13.08c0,.14-.26.05-.33,0l-.05.29-.05-.17c.05.24-.16-.14-.12.08l.11.13a.19.19,0,0,0-.25.14l-.09-.11c-.16.1-.22.3-.33.47.09,0,.27.15.26.21l-.18-.12c.08.11.1,0,.18.16s-.22-.11-.25-.19v.12l-.13-.13c.09.11-.27,0-.11.18l-.06,0-.19.42c.16.1.09.13.19.24-.12,0-.31.12-.35.3s.14.09.22.18c-.16-.05-.2.11-.29,0a.91.91,0,0,0,0,.53l.17,0s-.1.08-.18.07h0c.15.28-.51.55-.17.74h0l.19.18c0,.09-.13,0-.23,0,.12.07.13.14.13.2a5.17,5.17,0,0,0-.59-.27l0,.17-.08,0L26,30.1c-.09,0-.07.07-.07.13l-.1,0,0,.2c-.06,0-.06-.12-.14-.08s.14,0,.12.15-.13-.05-.13,0l0-.08c0,.08-.08.14,0,.22-.1,0-.09.17-.21.08l0,.2c-.09-.18-.12.16-.27,0,.09.15-.08.26-.07.42v0l-.15.08c.11.07.08.19.12.28-.16,0-.11-.12-.23-.16.1,0,0,.19.11.2-.1,0-.06,0-.18,0,.14.09,0,.07.05.15-.12,0-.15-.06-.16,0l-.07-.08c-.06.06.08.1.13.15s-.11,0-.19,0v.21l0,0c0,.12-.11.17-.1.32h0l.13.12s0,.12-.08.07v0c-.12-.06,0-.07,0-.14,0,.09-.06.23-.14.26s.1-.14,0-.15l.11,0c-.19-.08.06,0-.13-.13-.13.07-.08.15-.21.22l.09.13c-.08.22-.31-.12-.33.1s.1.21,0,.22L23.65,33c-.12.08.05.2-.12.23l0-.1c-.14,0,0,.1-.07.15l-.08-.08-.32.4L23,33.51a1.77,1.77,0,0,1-.62.43v.13l-.06,0c.76,1.51.19.35.37.64l0,.09c.13-.09.38-.19.53-.07l0,0c.11,0,.14-.2.24-.1l0,0c.24.06.54,0,.7.17.05-.13.22.11.28-.09.12.13.07.15.25.26s.11-.11.18-.12l0,.1.12-.09V35H25l0-.08c.11,0,.2.13.18.19h.22l-.09,0c.14-.05,0,.11.11.06l0-.07.22.14,0,.06.47.18c0-.05,0-.15.1-.14l0,.1c.07,0,0-.06.09-.1s0,.12-.09.14h.13l-.08.07c.08,0,.14.16.26.07v0l.15,0,0,0c.07-.06.2.18.29.12l-.25-.15.4.07.15-.12.38.13c.11,0,0-.08.09-.13s.14.09.06.15a1.4,1.4,0,0,0,.45,0l0-.08.08.09h0c.26-.1.54.3.74.14h0l.21-.08c.09,0-.06.06,0,.12.23-.13.33,0,.52,0,.11.26.44.06.57.24v-.06c.06-.05,0,0,.07.06v-.09c.41,0,.62.37.94.6.12.1.24-.21.32,0l-.11.06c.42,0,.26.47,1.08.3,0,0-.09.12-.16.16s.07.05.13,0a2.42,2.42,0,0,1,0,.58c-.2-.56-1-.41-1.23-.94,0,0,.15,0,.11,0L31,36.73l.05.22-.28,0c.18,0,.09-.18,0-.26l-.05.1c-.15-.25-.12.21-.36,0l0-.05h-.35c0-.14.13,0,.15-.14-.19,0-.36.14-.5,0l.25,0c-.16-.2-.19-.15-.31-.17h0l-.3,0,.08,0c-.21.37-.42.1-.68.31.26-.2,0-.12.07-.27s-.14-.09-.11-.14c-.13.1-.13-.07-.35,0,0-.05-.14,0-.07-.15-.17,0,0,.09,0,.15-.3.09-.54-.36-1-.24s-.43.12-.7.13l-.06,0c0-.09.13-.13.13-.13a.55.55,0,0,0-.43-.13V35.8c-.12,0-.13.15-.27,0l.18-.15-.48,0c0-.09.13-.1.19-.13a1.84,1.84,0,0,0-.37,0c.15,0,.17.11.16.16h-.11c0,.31.43.08.63.16l-.12.14c-.45-.14-.85-.22-.84-.53s-.76,0-.76,0h0c0-.08.07-.15.09-.23a.08.08,0,0,0,.06,0l.11-.14h-.14s0,0,0,0,0-.21-.21-.32l-.29.1L24,34.94l.23,0c-.12-.12-.22,0-.31,0l-.11-.14-.28.19c0-.09.12-.17-.06-.24-.12.09.12.21-.08.27s-.1-.17-.25,0l.06-.14c-.13.1-.37.12-.41.26-.17-.09-.44.15-.5-.06a.85.85,0,0,1-.29.27c.08-.34-.4.19-.48-.08,0,.28-.47.37-.65.61l0-.07c-.15.05-.23,0-.36.11.1.17-.07.47,0,.67-.31.13-.12-.25-.31-.28.13.08-.12.51.05.46-.21.14-.14.13-.34.2.22.09,0,.14.08.24-.19.12-.24,0-.25.16s-.12-.1-.12-.1.14.12.22.18-.17,0-.29.07.11.29.05.4l-.07,0c0,.25-.26.55-.19.83h-.05l.25.06c0,.1,0,.22-.11.21l0-.12V39c-.21,0,0-.16-.11-.2a2.71,2.71,0,0,1-.11.64c-.19,0,.08-.38-.15-.21l.18-.23c-.34.11.09-.15-.27-.06-.21.33-.06.39-.2.7.07.09.14,0,.21.11,0,.49-.51.25-.38.63.09.12.3.21.16.44l-.18-.12c-.06.36.25.24.08.59-.07-.07,0-.28-.06-.23-.18.23.09.18.07.36l-.17,0c0,.4.1.63.09,1,0,0-.09-.1-.15,0A7.56,7.56,0,0,1,18.11,44l.14.19s-.07.09-.1,0c0,.22.09,0,.16.1s0,.19-.11.11c.2.5.62,1,.72,1.31l-.07,0c.12.27.41.06.45.35l0,0c.37.47,1.17.68,1.54,1.05.12-.2.57.14.65-.15.31.17.21.21.69.34.13,0,.2-.17.35-.19v.15l.21-.15.11.18.14,0-.11-.11a.51.51,0,0,1,.53.16l.5-.15-.16.13c.27-.17.05.16.3,0l0-.12a1,1,0,0,0,.61,0l0,.1Z" transform="translate(-15.8 -16.24)"/><path class="cls-5" d="M62.18,38.23c.09-.14.1-.34.16-.39-.12-.19-.2-.48-.4-.56l0-.11.07.08c-.08-.11-.12-.35-.24-.35,0-.17.13.06.05-.15l0,0c.07-.46-.47-.59-.31-1.11l0,.06c.08-.62-.38-1.09-.61-1.68a.15.15,0,0,0-.17-.11l-.06-.08v0h0l0,0a2.22,2.22,0,0,0-.34-.25.36.36,0,0,0-.28-.25v.08c-.07-.08-.28-.18-.22-.23l-.08,0,0,0L59.53,33c-.13-.15.15-.14-.07-.33s-.34-.07-.33,0l0,.14-.09,0,0,0-.1.1,0-.11h0s0,0,0,0a.3.3,0,0,0,0-.15h0c0-.06,0-.08,0-.08a.54.54,0,0,1,0-.06l0,.06a.38.38,0,0,0-.09-.22l0-.07v0a.68.68,0,0,1,0-.17v0a.25.25,0,0,0,0,.16l.08,0v.06l-.05,0c0,.07,0,0,.07,0v.07l.09-.07,0,.12.07-.12,0,.08,0,.05.12,0c0,.08.11,0,.06.14l.12,0c-.11.09.1.06,0,.18.09-.09.15,0,.25,0h0l0,.1.19-.08c0,.11-.09.08-.12.16l.14-.08,0,.12c.07-.1,0,0,.11,0s-.05.1,0,.11L59.9,33c.05,0,.08-.06.12-.09S60,33,60,33h.16l0,0,.23.05v0l.07-.11.05,0,0,0h0c0,.09-.05,0-.09,0l.19,0c0,.07-.11,0-.1.05l0-.07c0,.14,0,0-.08.11l.17.1.08-.08c.16,0,0,.23.1.2s.13-.1.15,0l-.08.06c.07.06.13-.08.16,0h-.07c0,.1.07,0,.11,0l0,.07.29.14-.05.06.27.34.09,0,0,0c0,.06,0,0,.07,0l0,.06c.11,0,.28.08.29.21h0c0,.07.17,0,.17,0h0c.09.13.27.21.28.37.09-.06.08.14.19.05v.25h.14l-.06,0h.1l-.05.08,0,0,0-.06c.06,0,0,.16,0,.18l.14.08H62.7c.11,0-.06.06,0,.07l.05,0,.08.16-.05,0L63,36l.11-.06-.06,0,.09,0-.1.06.06,0-.07,0c.06,0,0,.11.08.1h0l.16.23.13,0,0,.25h.11l-.07.09.17.23,0,0,0,.07h0c.15.1-.05.4.12.46h0l.11.09-.08,0c.14.09.06.2.16.29-.15.14.12.28,0,.42l0,0s0,0,0,.07l.06,0a2.25,2.25,0,0,1,0,.78c0,.09.24,0,.15.15l-.09,0c.13.17.09.38.15.56l0,0c-.06,0,0,.14,0,.14l-.07,0s.07.1,0,.12l0,0s0,.12.06.09v.19c.08,0,0,.12.07.13-.11,0-.09.12,0,.17l-.08,0,.08.09c-.14.08.1.2-.07.23l.1.44c-.11,0,0-.15-.11-.16,0,.13.11.22.06.34l-.06,0,0,.37,0,0,0,.06v0c.08,0,.13.12.17.13-.14-.07-.06.11-.23,0l.06,0h-.07l.05.14-.06,0,0,.15,0,0c0,.11.09.21,0,.31-.1-.06,0,0-.13,0v.07h0v.16l0-.05v.11l0,0c0,.07.11,0,.08.09l-.07.07v.1l-.12,0,.05.18-.07,0,.05,0H64c0,.07.12,0,0,.08l0,0-.07.26c-.1,0,0-.08-.08-.07l0,.38,0,0c.12.06-.09.06,0,.14l-.05,0,0,.3,0,0-.09.16.06.05c-.22.09,0,.33-.21.4l0,0,0,.12h.09l0,.1c0-.06-.08,0-.12,0l0,0c-.12,0,.1.06,0,.11l0,0v.11l-.06-.07s.07.14,0,.15v-.08c-.09,0-.08,0-.1,0l-.06.06h0c.13.13,0,.13,0,.25-.06-.12,0,0-.11-.08h-.08c0,.06-.07,0,0,.13H63l.07,0c0,.11-.16.12-.11.27v.25l-.05-.07-.09.09-.05,0v.09l0-.1,0,.15,0-.08a3,3,0,0,0,0-.5c.2-.18.18-.69.33-1,0,0-.11,0-.12-.08s-.08-.23.05-.2v0c.14,0,.12-.21.14-.34l-.17,0c.32-.29-.07-1,.12-1.17l-.13-.21.09,0a4.14,4.14,0,0,0-.08-.55l.08,0c0-.15-.29-.15-.32-.29l.13-.06c0-.26.07-.52-.08-.77l.07,0c0-.13.09-.39-.1-.38.11-.06,0-.12,0-.22l.05.08a.68.68,0,0,1,.08-.38s.06,0,.05,0c.06-.13,0-.16,0-.36L63,40c0-.22,0-.16-.12-.25a.32.32,0,0,1,0-.34l-.15-.14h.07c0-.23-.23-.26-.2-.44l0,0a1.72,1.72,0,0,1,.11.29c.08,0,0-.17.19-.12-.1-.07-.3-.2-.32-.34l0,0h0l0-.07,0-.11c.06,0,0-.17,0-.24s-.1-.06-.15.05l0,.05v0Z" transform="translate(-15.8 -16.24)"/><path class="cls-6" d="M64.2,41.91v0l0-.06,0,0,0-.37.06,0c0-.12,0-.21-.06-.34.13,0,0,.14.11.16l-.1-.44c.17,0-.07-.15.07-.23l-.08-.09h0l.08,0c-.05,0-.07-.17,0-.17-.11,0,0-.1-.07-.13l0,0,0,0h0v-.19c-.07,0,0-.07-.06-.09l0,0c.06,0,0-.08,0-.12l.07,0s-.1-.1,0-.14l0,0c-.06-.18,0-.38-.15-.56l.09,0c.08-.13-.15-.06-.15-.15a2.25,2.25,0,0,0,0-.78l-.06,0s.07,0,0-.07l0,0c.1-.14-.18-.29,0-.42-.1-.08,0-.2-.16-.29l.08,0-.11-.09h0c-.17-.06,0-.36-.12-.46h0l0-.07,0,0-.17-.23.07-.09h-.11l0-.25-.13,0-.16-.23h0c-.1,0,0-.1-.08-.1l.07,0-.06,0,.1-.06-.09,0,.06,0L63,36l-.22-.27.05,0-.08-.16-.05,0c-.1,0,.07-.05,0-.07h.08l-.14-.08s.05-.15,0-.18l0,.06,0,0,.05-.08h-.1l.06,0h-.14V34.9c-.11.09-.1-.11-.19-.05,0-.16-.19-.24-.28-.37h0c0-.1-.14,0-.17,0h0c0-.12-.19-.19-.29-.21l0-.06s-.05.09-.07,0l0,0-.09,0-.27-.34.05-.06-.29-.14,0-.07s-.11.08-.11,0H61c0-.11-.1,0-.16,0l.08-.06c0-.09-.1,0-.15,0s.06-.19-.1-.2l-.08.08-.17-.1c0-.14,0,0,.08-.11l0,.07c0-.1.06,0,.1-.05l-.19,0c0-.05.06,0,.09,0h0l0,0-.05,0-.07.11v0L60.14,33l0,0H60c0-.05.09-.11,0-.13S60,33,59.9,33l.07-.05c-.07,0,0,0,0-.11s0-.06-.11,0l0-.12-.14.08c0-.09.12-.05.13-.16l-.19.08,0-.1h0c-.1,0-.16-.08-.25,0,.08-.12-.13-.09,0-.18l-.12,0c0-.1-.06-.06-.06-.14l-.12,0,0-.05,0-.08-.07.12,0-.12-.09.07v-.07s-.06.06-.07,0l.05,0V32.2l-.08,0a.25.25,0,0,1,0-.16v0a.68.68,0,0,0,0,.17v0l0,.07a.38.38,0,0,1,.09.22l0-.06a.54.54,0,0,0,0,.06s0,0,0,.08h0a.3.3,0,0,1,0,.15s0-.05,0,0h0l0,.11.1-.1,0,0h0l.05,0,0,0,.09,0,0-.14c0-.05.23,0,.33,0s-.06.18.07.33l.26.09,0,0,.08,0c-.06,0,.15.15.22.23v-.08a.36.36,0,0,1,.28.25,2.22,2.22,0,0,1,.34.25l0,0h0v0l.06.08A.15.15,0,0,1,61,34c.24.59.69,1.05.61,1.68l0-.06c-.15.52.38.65.31,1.11l0,0c.08.21,0,0-.05.15.13,0,.17.24.24.35L62,37.16l0,.11c.2.09.29.37.4.56-.07,0-.07.25-.16.39l.17,0v0l0-.05c0-.11.06,0,.15-.05s.1.2,0,.24l0,.11,0,.07h0l0,0c0,.14.22.26.32.34-.15-.05-.11.08-.19.12a1.72,1.72,0,0,0-.11-.29l0,0c0,.18.17.2.2.44h-.07l.15.14a.32.32,0,0,0,0,.34c.08.08.17,0,.12.25l0-.09c-.08.2,0,.22,0,.36,0,0,0,0-.05,0a.68.68,0,0,0-.08.38l-.05-.08c0,.09.09.16,0,.22.2,0,.09.24.1.38l-.07,0c.15.25,0,.51.08.77l-.13.06c0,.14.3.14.32.29l-.08,0a4.14,4.14,0,0,1,.08.55l-.09,0,.13.21c-.2.22.2.88-.12,1.17l.17,0c0,.13,0,.3-.14.34v0c-.13,0,0,.13-.05.2s.08.13.12.08c-.14.32-.13.83-.33,1a3,3,0,0,1,0,.5l0,.08,0-.15v0h0v0l0,0v0l0,.1v-.09l.05,0,.09-.09.05.07V46c-.05-.16.15-.16.11-.27l-.07,0H63c-.05-.09.05-.06,0-.13h.08l0,0,0,0h0c.06,0,.05,0,.11.08-.06-.13.09-.12,0-.25h0l.06-.06s0,0,.1,0v.08c.08,0,0-.11,0-.15l.06.07v-.11l0,0c.1-.05-.12-.09,0-.11l0,0s.11,0,.12,0l0-.1h-.09l0-.12,0,0c.21-.07,0-.31.21-.4l-.06-.05.09-.16,0,0,0-.3.05,0c0-.08.17-.08,0-.14l0,0,0-.38c.09,0,0,.07.08.07l.07-.26,0,0c.08-.07-.08,0,0-.08H64l-.05,0,.07,0L64,43.1l.12,0V43l.07-.07c0-.07,0,0-.08-.09l0,0v-.11l0,.05V42.7h0v-.07c.09,0,0-.07.13,0,.07-.11,0-.21,0-.31l0,0,0-.15.06,0-.05-.14h.07l-.06,0c.17.09.09-.08.23,0C64.33,42,64.28,41.89,64.2,41.91Z" transform="translate(-15.8 -16.24)"/><polygon class="cls-5" points="25.22 30.26 25.22 30.26 25.23 30.26 25.22 30.26"/><polygon class="cls-5" points="24.83 30.06 24.82 30.06 24.82 30.06 24.83 30.06"/><path class="cls-5" d="M41.16,46.7l0,0h0l0,0h0l0,0,.06,0h0s0,0,0,0l-.08,0,.07,0h0l0,0,0,0-.07.05-.06,0,0-.05h0l0,0,0,0,.06-.08,0,0c0-.06-.11.12-.08,0l0-.06-.05,0,.05-.09-.05.07,0-.11-.06.09a.13.13,0,0,1,0-.07v0s0-.07,0,0h0s0,.13,0,.09l0-.12,0,0c0-.06,0,0,0,0l0,.07s0,.09,0,0v0l0,.08,0-.15v0h0l0,0,0,.1,0-.13s0,.1,0,.06l0,.06h0l0,.11v-.1h0v0h0s0-.11,0,0v-.08l0,0h0s0,.09,0,0l0,.11,0-.12h0l0,.11v-.08s0-.11,0,0,0,.11,0,.12v0h0v-.08s0,0,0,0l0-.1v.16l-.06,0v-.1c0,.08,0,.1,0,0v0h0v0l0-.06c0-.12,0-.11,0-.13l.16,0s0,.07.07,0l0,0,0,.14s0,.18,0,0,0-.15,0-.11v.06h0l0-.07v0l0,0v0l0,0v.12l0-.08h0v0h0v0s0-.05,0,0l0,0,0,0v.06l.05-.11v.07c0-.15,0,0,.07-.08l0,.1s0,0,0-.05.05,0,0,0c0-.09,0,0,0,0s0,0,0,0l0,0h0l0,.07.06-.05,0,0,0,0,0,.07h0v0l.08,0,0,0h0s.08-.05,0,0h0l0,0,0,0v0s0,0,0,0,0,0,0,0Z" transform="translate(-15.8 -16.24)"/><polygon class="cls-5" points="24.75 32.51 24.75 32.51 24.75 32.51 24.75 32.51"/><polygon class="cls-5" points="24.52 32.13 24.51 32.13 24.51 32.13 24.52 32.13"/><path class="cls-5" d="M40.56,49h0l-.06,0h0s0,0,0,0l-.08,0h.05l0,0,0,0h-.16l.07,0h0l0,0h0l.1,0-.06,0c.06,0-.16,0-.09,0l0,0H40.4l.09-.05-.08,0,.09-.07-.1,0s0,0,0-.05h0c-.05,0,0-.06,0,0h0s-.1.08-.08.06l.09-.09h0s-.05,0,0,0l-.05,0s-.08.06,0,0l0,0-.06.05.11-.11,0,0h0l-.08.06.09-.1s-.07.07-.05,0l-.05,0h0l-.09.07.07-.09h0l0,0h0s.06-.09,0,0l0-.06,0,0h0s-.06.07,0,0l-.1.07.08-.09v0l-.07.08.05-.07s.05-.1,0,0-.06.09-.08.09l0-.08,0,0v0l.06-.07s0,0,0,0,0,0,0-.11l0,.08,0,.06,0-.06,0-.09c0,.07-.05.08,0,0l0,0h0l0,0v-.06c0-.11.05-.1.07-.11l.16.06s0,.07.06,0l0,0-.11.09s-.08.16,0,0,.09-.12.08-.08l0,0v0h0l.05-.06v0l0,0,0,0,0,0,0,.07,0,0,.06-.06h0l0,0,0,.05,0,0s.07,0,0,0l0,0h0l0,0,.1-.07,0,.05,0,0,0,0v0c.12-.1,0,0,.1,0l-.09.06s0,0,.06,0,.07,0,0,.05,0,0,.07,0,0,0,0,0l0,0h0l-.05,0h.08l0,0h.06l-.05,0h0l0,0h0l0,.08,0,0h0s.1,0,0,0h0l-.07,0h0s-.06,0,0,0,0,0,0,0Z" transform="translate(-15.8 -16.24)"/><polygon class="cls-5" points="23.29 33.63 23.29 33.63 23.29 33.63 23.29 33.63"/><polygon class="cls-5" points="23.24 33.18 23.23 33.18 23.23 33.18 23.24 33.18"/><path class="cls-5" d="M39,50.09h-.09l0,0,.07,0v0s0,0,0,0L38.87,50l.08,0,0,0H39l-.08,0-.07,0H39c.07,0-.16,0-.08,0l.06,0,0,0h0l.11,0H39l.06,0h0c-.06,0,.06,0,0,0h0l-.1,0,.12,0h0c.06,0-.06,0,0,0l-.07,0s-.1,0,0,0h0l-.08,0,.15-.05h0l-.1,0,.12-.06s-.09,0-.06,0h-.06l-.11,0,.1-.06h0l0,0h0s.09-.06,0,0l.07,0h-.06s-.08,0,0,0l-.12,0,.11-.05v0l-.1,0,.07,0s.09-.07,0,0-.09.05-.11,0l.07-.05,0,0v0l.08,0s0,0,0,0l.07-.09-.07.05-.06,0v-.07l.08-.06c-.07,0-.08,0,0,0l0,0h0l0,0,0,0c.09-.08.09-.07.11-.07l.12.12s0,.06,0,.05h0l-.14,0s-.14.11,0,0,.13-.07.1,0h0l0,0h0l.07,0h0l-.07,0,0,0,.08,0h0l0,0-.06,0,.06,0s.07,0,0,0h0l0,0-.06,0,.12,0-.06,0,0,0,0,0h0c.15,0,0,0,.11,0l-.11,0s0,0,.06,0,.07,0,0,0c.09,0,0,0,.07,0s0,0,0,0h0l0,0-.07,0,.08,0h0l-.07,0h0V50h0v0h0s.09,0,0,0h0l0,0H39l0,0h0s-.06,0,0,0,0,0,0,0Z" transform="translate(-15.8 -16.24)"/><polygon class="cls-5" points="5.23 29.44 5.24 29.44 5.24 29.43 5.23 29.44"/><polygon class="cls-5" points="4.03 27.89 4.02 27.9 4.02 27.9 4.03 27.89"/><polygon class="cls-5" points="6.79 30.41 6.87 30.34 6.83 30.29 6.79 30.41"/><polygon class="cls-5" points="6.75 30.25 6.66 30.27 6.69 30.31 6.72 30.38 6.78 30.33 6.76 30.31 6.75 30.25"/><polygon class="cls-5" points="3.9 28.26 3.9 28.26 3.9 28.26 3.9 28.26"/><polygon class="cls-5" points="3.96 28.46 3.95 28.45 3.96 28.45 3.96 28.46"/><polygon class="cls-5" points="6.74 30.44 6.78 30.38 6.73 30.4 6.74 30.44"/><path class="cls-5" d="M22.3,46.61l0-.08h-.05a.08.08,0,0,0,0,0h0l0,0s0,0,0-.07v0l-.05,0c0,.05,0,0,0,0l-.05.06,0-.13-.05.07,0-.07h0l0,.05,0-.05h0v0l-.11,0v0l0,0-.11.1s0-.08,0-.1v-.08c0-.06,0-.11,0,0s0,0,0,0l-.1.14v-.14s0,0,0,0l0,0,0,0s0,0,0,0,0,0,0-.09,0,0,0,0v.06l0,0,0,0V46.1l-.09.09.07-.09c0-.1-.05.07-.06,0l0,0c0-.07-.08.07-.07,0h0l0,0c0-.13-.21.09-.22,0l.08-.14h0s-.07.1-.11.06l0-.11c-.09.07-.2.05-.21,0l.11,0,0,0-.06,0,0,0s0,0-.08,0h0c-.1,0-.06,0-.17,0,.07-.1.08,0,.16-.11l0,0s0,0,0,0-.07.07-.11.06l0-.18-.11.06v0s-.05.09-.07.05a.12.12,0,0,0,.06-.15s-.1.07-.06,0h0c-.11,0,0-.21-.17-.15l0,0s-.15.15-.14.06.14-.08.12-.16,0,0,.09,0-.12,0-.16,0l-.07,0-.11,0,.13-.13s0,0,0,0h0s-.08,0,0-.05h0s0,0,0,0l-.15.07h.06s-.1,0-.11,0h0l0,0,.06,0v0l-.05,0s-.08,0,0-.05.09,0,.09-.07l.07,0s.07,0,.1-.06h-.1l-.06,0h0l0,0s0,0,0,0h-.19l0,.06s-.1,0-.07,0l-.07,0,.16,0s.06-.07.07-.1h0c-.06,0-.14,0-.12,0l0,0,0,0,0,0c-.07,0,0,0,0,0l-.08,0,0,0-.17-.09,0-.13h0l0-.07h0a.34.34,0,0,1-.1-.14l-.07,0-.09-.12.09,0s-.12,0-.07-.06l.32,0-.41-.11h.18v0h0v-.13l-.18-.07h.13c0-.06.15-.13,0-.12l.14,0s-.12,0,0-.08a.1.1,0,0,1-.1,0c-.1,0-.21.06-.24,0s.15,0,.13,0H19c.06,0,0-.06,0-.09l.15.08c-.09-.07,0-.13-.07-.19s.12,0,.13,0h.08l-.17-.07h.06a.48.48,0,0,0-.2-.06L19.1,43c-.08,0,0,0-.12,0l0-.43c.06,0,.11.09.17,0-.13,0-.17-.13-.08-.19l.07,0h0l.05,0L19,42.36l.08-.06a.4.4,0,0,1,.17,0l.05,0c.19,0,.19.06.24.14l.22.82a.28.28,0,0,0,.08.31l.08.1h-.19c0-.07,0,0,0,0s-.06,0-.05.06h0c.08-.05.23,0,.18,0h0s-.09.08,0,.08v0h.09s.1,0,.07.08l0,0L20,44l-.12.08-.06,0h-.07l0,0h0c.1,0,0,0,.13,0l-.07,0,.12,0,0,.06h0l.08.12s-.12,0-.08.05l.09,0c0,.08.17.08.06.18l-.08,0c.09,0,0,.08.12.11l-.08.06.23,0-.08.08.07,0,0,.07,0,0c.22-.12.08.14.23.11l-.16.05c.05,0,0,.09.11,0s.16.06.07.19c.11-.1.08,0,.15,0-.11.08,0,0,0,.09l-.05,0,.27.17,0,.07.09-.08,0,.07c.05-.1.05,0,.1,0l0,.13h0v.07l0,0c.18,0,.23.19.38.22l0,.13v0L21.5,46v0h0l0,0c0,.08.13-.08.12.06h.1v.11l.09-.06c0,.08.12.11.12.11h0l0,0,.06,0h.08l.09,0-.07.12.11-.09,0,.05h0l.12.12v0c.09.05.08-.05.08-.05l0,.14-.08.07S22.39,46.58,22.3,46.61Z" transform="translate(-15.8 -16.24)"/><polygon class="cls-5" points="44.97 30.32 45.03 30.4 45.02 30.34 44.97 30.32"/><polygon class="cls-5" points="45.03 30.2 45.1 30.32 45.15 30.31 45.03 30.2"/><polygon class="cls-5" points="45.16 30.23 45.07 30.16 45.12 30.25 45.15 30.24 45.21 30.27 45.15 30.21 45.16 30.23"/><path class="cls-5" d="M61.32,46.16a0,0,0,0,1,0,0h0l-.07,0,.13.09-.13,0-.09-.05.08.07-.16,0,.07.07c-.05,0-.09,0,0,0l.16,0v0s0,0,0,0l.16,0v0l.07,0-.14-.08Z" transform="translate(-15.8 -16.24)"/><path class="cls-5" d="M61.24,46.11c.05,0,.17,0,.08,0S61.19,46,61.24,46.11Z" transform="translate(-15.8 -16.24)"/><polygon class="cls-5" points="45.44 29.76 45.49 29.78 45.47 29.74 45.44 29.76"/><polygon class="cls-5" points="45.69 26.33 45.67 26.34 45.8 26.35 45.69 26.33"/><polygon class="cls-5" points="46.16 28.91 46.16 28.92 46.17 28.92 46.16 28.91"/><path class="cls-5" d="M62.15,43.22c.12,0,.14,0,.23,0l-.08-.07h0c.05,0-.08-.06-.07-.1h0l-.15,0v0c-.11,0-.19-.08-.31-.05h0l.1,0c.1,0,.11,0,.12,0h.06s0,0,0,0,.12,0,.13,0h.06s0-.05-.07-.07l0,0,.18,0-.08-.11a.22.22,0,0,1-.07-.19h0a.22.22,0,0,1,0-.11l-.09-.78c0-.08,0-.11-.27-.15l0,0-.12,0-.11,0,.11.07h0s0,0,0,0h0l-.08,0c-.12,0-.1.11,0,.16h0l-.16,0-.06.37a.59.59,0,0,1,.21,0h.11a.64.64,0,0,1-.2.09l.19.11-.28-.06,0,0v0h0a.62.62,0,0,1,.11.16h0l-.14-.08s.06.07,0,.07h.11s-.1,0-.18,0,.37,0,.43.1h0l-.08,0h.07c-.08,0,0,0,0,.06h-.18c.2,0,0,0,0,.09h0s0,0,0,0l-.17,0,.22.1v.06h-.12a.32.32,0,0,1-.17,0c-.06,0,.1.06.15,0h.12v0h-.07l.07,0h0l-.24,0s.26.13.22.16-.17,0-.17,0,.13,0,.09.09l0,0,.14,0s0,0,0,0l.07,0,0,0a.13.13,0,0,1,0,0h-.06s0,0-.1,0l0,0c-.06,0-.16,0-.15,0,.17,0,.11.1.13.12l-.19,0,.09.05h0c-.09,0-.24.06-.22.1s.13.1.21.12v0h.12s-.11,0,0,0h.06l0,0,0,0c-.07,0,.06,0,.12.08s-.19,0-.19.06l-.19-.06c-.16,0,.18.06.15.08l.07,0h.08s0,0,0,0h0c.07,0,.13,0,.1.05l-.11,0h0l0,.05h-.09l-.25,0c-.09,0,.13.07.09.08h.09c-.12,0,0,.07.07.07l-.07,0,.17,0h0c-.12,0-.08.08-.17.1l0,0c-.06,0,0,.06,0,.09s0,0,0,0h.19c0,.05,0,.1.1.15H61.8s0,0,0,0-.17,0-.25,0,.15,0,.2.05v0h0c.08.05-.08.12,0,.19l0,0c-.1,0,0,0,.05.05a.29.29,0,0,1-.26,0s0,0,.08,0l0,0,.18,0h0l0,0-.23.06s.09.06.13.07,0,.07,0,.07-.06-.06-.22-.08c.15.06,0,.06.13.12h0c.1,0,0,.09,0,.12L61.63,45c-.06,0,0,.12.12.18h-.14c0,.07.19.06.14.12l-.1,0c-.15,0,.1.15,0,.19l-.12-.07.05.08h0c-.11,0,.1.05,0,.07h.09s-.12,0-.12,0l.14.08-.17-.09c-.15,0,.08.05,0,.06l-.18-.08.2.1-.13,0s.23.1.17.13-.12,0-.11,0,0,0,0,.08h0l-.22,0,.13.08s0,0,0,0l-.08,0c-.13,0,0,0-.08-.08s0,0,.06.11l.07.09s0-.06,0-.06h0l0,0,.06.09c-.07-.12.25,0,0-.16l-.06,0,.06,0,.13.08-.07-.09.14,0v-.1h0c.17,0-.05-.1,0-.13l0,0v0h0l-.14-.09h.17c-.06-.15.14-.26,0-.43h-.06l.07,0h0s.14-.05.14-.08,0-.07-.11-.08h.1l-.15,0h.11a.34.34,0,0,0,0-.32l.07,0s-.11-.1.06-.06c-.07-.06.07-.13-.12-.15.19,0,.1-.12.08-.19s-.08,0-.09,0h0s0,0,0-.05l.21.07c-.19-.08.14-.19-.18-.23h0l.07,0h-.1l.14,0L62,43.8h.13c-.1-.08,0-.07,0-.15s.14,0,.08.05c.18,0,0-.12.06-.18l-.12,0s.09,0,.13,0,0-.1,0-.15h0v-.07l-.16,0Z" transform="translate(-15.8 -16.24)"/><path class="cls-5" d="M61.58,42.47h0Z" transform="translate(-15.8 -16.24)"/><polygon class="cls-5" points="45.14 30.32 45.2 30.4 45.18 30.34 45.14 30.32"/><polygon class="cls-5" points="45.27 30.32 45.31 30.31 45.2 30.2 45.27 30.32"/><path class="cls-5" d="M61.23,46.36s.05.08,0,.1l.07,0-.06,0,.07,0Z" transform="translate(-15.8 -16.24)"/><path class="cls-5" d="M61.26,46.46h0Z" transform="translate(-15.8 -16.24)"/><path class="cls-5" d="M61.17,46.43l-.1-.07s0,.07,0,.09L61,46.4l0,0H61l.1,0,0,0h0l.07,0,0,0h0l-.06,0h.06l.07,0C61.22,46.4,61.2,46.42,61.17,46.43Z" transform="translate(-15.8 -16.24)"/><path class="cls-5" d="M61.39,46.16l.14.11,0-.1S61.47,46.21,61.39,46.16Z" transform="translate(-15.8 -16.24)"/><path class="cls-5" d="M61.49,46.08s-.14,0-.08,0S61.58,46.15,61.49,46.08Z" transform="translate(-15.8 -16.24)"/><polygon class="cls-5" points="13.7 10.91 13.68 10.92 13.68 10.93 13.7 10.91"/><path class="cls-5" d="M30.37,28.05l0-.17C30.35,27.93,30.31,27.94,30.37,28.05Z" transform="translate(-15.8 -16.24)"/><polygon class="cls-5" points="17.68 12.38 17.84 12.37 17.76 12.36 17.68 12.38"/><polygon class="cls-5" points="17.82 12.31 17.86 12.26 17.64 12.34 17.82 12.31"/><path class="cls-5" d="M33.75,28.17l-.13.11-.06,0h0l-.15.08.13,0,0,0s.15-.09.11,0l-.07,0-.19.07.16,0a.15.15,0,0,1,0,.05h0l-.07,0h.15l-.07,0h0l-.15.08.13,0,0,0,.09-.06,0,0h-.06c.11-.09.18-.16.19-.23l-.08.06Z" transform="translate(-15.8 -16.24)"/><path class="cls-5" d="M33.56,28.24c0,.07-.08.12,0,.05l0-.14s.15-.09.12,0-.07.08-.14.14c.13-.09.2-.17.21-.25l-.08.06.06-.1-.17.14a.16.16,0,0,0,0-.08h0V28l0,0a.16.16,0,0,0,0-.07v0h0v-.1a.86.86,0,0,1-.14.14h0a.18.18,0,0,0-.05.09l0,0a.21.21,0,0,1,0,.07s.06,0,.1-.06a.39.39,0,0,1,0,.09.18.18,0,0,0-.06.1l.12-.1c0,.06,0,.1-.09.22Zm0-.35h0Z" transform="translate(-15.8 -16.24)"/><path class="cls-5" d="M33.36,27.93c.05,0-.1.19,0,.12S33.47,27.81,33.36,27.93Z" transform="translate(-15.8 -16.24)"/><path class="cls-5" d="M29.08,28.15l0,0v-.06l0,0c0-.18.14,0,.15-.13a.4.4,0,0,1,0,.27s0-.1.09,0l-.07-.15s.06.14.13.23,0-.23-.11-.4c0,0,.06.15.12.23s0-.22-.11-.38,0-.12,0-.09l.09.26c-.09-.33.07,0,.12,0l.06.25c0-.06,0-.12,0-.2a1.06,1.06,0,0,0,0-.15l.12,0a1.64,1.64,0,0,0,0,.26s0,0,0,0l0,.1V28s.08-.43.1-.31l0-.06v.06s0,.1,0,.06,0-.19.07-.15h0s0-.18,0-.15,0-.13,0,.05c0,0,.07.16.09.14,0-.26.13.08.15,0v0l.08.11h0v0a.17.17,0,0,0,0,.09v0c0,.07.08.13.1.1s.12-.08.12-.2h-.06v-.07l0,0h0s0-.07,0-.07v0l0-.15s0,.16.05.05v.1c.08.1,0-.09.06-.19h0c.05,0,.05.27.12.27l0,.11c.08.22,0-.1.06-.06l-.06-.1v-.13h0l0,.11c.08.23,0-.1.06-.06l-.06-.11.09,0,.07-.07v0a.31.31,0,0,0,0,0l0,.16a0,0,0,0,1,0,0l0,.13s0,.08,0,.16,0,.25,0,.35v-.29L31,28l0-.26c0,.12,0-.07.06,0l0-.13c0,.17.08,0,.07-.12l0,.1v-.08s0-.09,0-.16.14.2.17.34l-.1-.46c.07,0,.19,0,.16,0s0,.25.07.37,0-.06,0-.17a1,1,0,0,0,0-.21c.06,0,.14.12.21,0l0,.07c0,.15,0,0,.06-.09s.09.08.06.27,0-.11,0-.17h0v0l0-.12a.17.17,0,0,1,0,.09v0s0,.12,0,.15,0-.06,0-.17h0s0-.1,0-.16a.66.66,0,0,1,.08.34c.08,0,.09-.16.07.06.08-.23.07-.05.16-.2v0c.06-.15.11,0,.16,0l-.12.12c0,.08.13,0,.23-.14v0h0l0,.17c.05,0,.09-.11.13-.17s0,0,0,.05l0,.09c0,.25.22-.13.23.09l0-.08s0,.05,0,.05h0s0,0,0,0v0l-.06,0c0,.16.09-.12.09,0l-.07.12.14-.2v0l-.1.13c0,.16.09-.16.07,0l-.11.19.14-.2,0,.12c.07-.07.16-.26.19-.19s-.1.18,0,.15.05-.06.08,0l0,.08.06-.1-.07.26,0-.05s.05,0,.11,0v.1c-.09.19-.06,0-.13.1s0,0,.16-.08l.11-.07s0,.07,0,0,.11-.24,0-.12,0,0,0,.07,0-.07,0-.13l.07,0c-.18.09-.18,0-.18,0l0,0,.07-.19.07-.06-.11.07h0l.07-.2c-.08.07-.1,0-.13,0h0c.05-.24-.15.09-.16,0l0-.05h-.05l0-.05-.09.1h0l0-.16c-.2,0-.27-.29-.51-.16V27s-.06,0,0-.11h0c-.06,0,0-.21-.08-.21s-.1-.08-.12.15v-.15l-.06.22h0l0-.16a.35.35,0,0,0-.43,0l0-.11c0-.05-.11.2-.09-.08-.06.11-.18-.06-.17.22-.05-.27-.16-.11-.24-.06,0,.22,0,.11-.07.17a.27.27,0,0,0,0-.14.14.14,0,0,1,0,.09c0-.12.05-.15,0-.25-.06.3-.29-.19-.25.3v-.06l-.07-.09v.15s0-.15-.06-.2c0,.12-.13.18-.11.37l-.05-.19c-.06.16-.09,0-.16.1h0s0-.18,0-.12c-.09-.26-.14.08-.24,0v.17h0s-.07-.13,0-.19-.12,0-.18,0v0h-.09l0,.16h0V27l0,0a.2.2,0,0,0,0-.1s0,0,0-.05c0-.17-.09-.11-.11-.24,0,.11,0,.09-.05.14l0-.07c-.07-.06,0,.14-.09.15l0,0v.4l0,0c0,.12-.09.06-.11-.05h0c0-.08,0-.14,0-.16l0-.08c-.06-.06-.07,0,0,.16a.15.15,0,0,0,0,.08l-.06-.34-.1.16c-.07.16-.17.21-.24.21s0,0,0,0l-.08,0c0,.06.05.08.07.08a.34.34,0,0,1-.13,0c-.31.09-.66.54-.9.91,0,.07,0,.12,0,.17s-.08.17.23.33c.09,0,.1,0,.2,0-.12-.06-.16-.12-.11-.16s0,.07.06.07h0l.09.07c.2,0,.22,0,.09-.16h0c.08.05.11.12.17.17A.37.37,0,0,0,29,28.4l-.06-.1s.13.05.16,0a2.56,2.56,0,0,1-.24-.38l.12.11s-.18-.49,0-.24l.13.32h0m.65-.3v0h0l0,.1Zm2.06-.77h0Zm1,.44,0-.1s0,0,0,0Zm.29.32a1,1,0,0,1,.11-.16v.08h0C33.13,27.86,33.13,27.8,33.09,27.82Z" transform="translate(-15.8 -16.24)"/><polygon class="cls-5" points="17.18 11.8 17.23 11.71 17.2 11.74 17.18 11.8"/><polygon class="cls-5" points="16.82 11.69 16.85 11.63 16.8 11.71 16.82 11.69"/><polygon class="cls-5" points="16.81 11.51 16.82 11.53 16.8 11.55 16.82 11.53 16.84 11.55 16.85 11.48 16.86 11.46 16.85 11.47 16.86 11.43 16.81 11.51"/><path class="cls-5" d="M30.72,27.85v0S30.72,27.93,30.72,27.85Z" transform="translate(-15.8 -16.24)"/><path class="cls-5" d="M29.72,27.95s0,.19,0,.29,0-.16,0-.23Z" transform="translate(-15.8 -16.24)"/><polygon class="cls-5" points="13.4 12.19 13.43 12.15 13.37 12.06 13.4 12.19"/><polygon class="cls-5" points="16.54 10.7 16.55 10.7 16.55 10.68 16.54 10.7"/><polygon class="cls-5" points="13.7 10.74 13.68 10.75 13.69 10.77 13.7 10.74"/><path class="cls-5" d="M33.42,27.91s.15-.09.19-.19l-.15.05S33.52,27.79,33.42,27.91Z" transform="translate(-15.8 -16.24)"/><polygon class="cls-5" points="17.18 11.63 17.23 11.54 17.2 11.57 17.18 11.63"/><polygon class="cls-5" points="16.84 11.38 16.86 11.26 16.81 11.35 16.84 11.38"/><path class="cls-5" d="M30.69,27.88a.43.43,0,0,0,0,.37l0-.11h0V28s0,0,0,.06l0-.11h0v-.11h0v-.13S30.68,27.79,30.69,27.88Z" transform="translate(-15.8 -16.24)"/><path class="cls-5" d="M30.72,27.68l0,0S30.73,27.76,30.72,27.68Z" transform="translate(-15.8 -16.24)"/><polygon class="cls-5" points="14.88 11.47 14.88 11.5 14.9 11.46 14.88 11.47"/><path class="cls-5" d="M30.19,27.91l0-.15c-.06,0,0,.32-.14.08l.08.21c0,.05,0,.08-.08,0l.08.21c0-.14.06-.17.1-.14l0-.15s0,0,0,.07S30.15,27.89,30.19,27.91Z" transform="translate(-15.8 -16.24)"/><path class="cls-5" d="M29.9,27.75v-.06S29.89,27.67,29.9,27.75Z" transform="translate(-15.8 -16.24)"/><polygon class="cls-5" points="13.6 11.72 13.53 11.53 13.57 11.7 13.6 11.72"/><polygon class="cls-5" points="13.4 12.02 13.44 11.99 13.37 11.9 13.4 12.02"/><path class="cls-7" d="M66.65,45.35a.47.47,0,0,0,.22.13h0a1.16,1.16,0,0,0,.64-.32,13.66,13.66,0,0,1,1.1-.94l.14-.11a3.89,3.89,0,0,1,.53-.36,1.43,1.43,0,0,1,.7-.21c.15,0,.29,0,.46,0-.07-.35-1-.37-1.4-.26a7,7,0,0,0-2.06,1l-.09.06c-.34.22-.53.54-.45.78a.59.59,0,0,0,.08.12Z" transform="translate(-15.8 -16.24)"/><path class="cls-7" d="M65,44.58h0a.46.46,0,0,1-.15,0l0,0h0v0a.56.56,0,0,1-.15-.28h0a1.13,1.13,0,0,1,0-.19,6.5,6.5,0,0,1,.62-2.67l.1-.24A6.73,6.73,0,0,1,65.86,40a3.78,3.78,0,0,1,.94-.81l0,.05.1,0-.12.09-.07.09a5.17,5.17,0,0,0-.61,1.27,11.14,11.14,0,0,0-.24,1.2c-.05.34-.17,1.39-.18,1.8a1.6,1.6,0,0,1-.29.88.46.46,0,0,1-.17.06Z" transform="translate(-15.8 -16.24)"/><path class="cls-7" d="M66.7,43.24a.53.53,0,0,0,.2.09h0l.05,0H67a1.13,1.13,0,0,0,.37-.19,9.62,9.62,0,0,0,1.86-1.87l.63-.66c.35-.35.76-.75,1-1s.68-.52.93-.69a4,4,0,0,1,.55-.26c.07,0,0,0-.11,0h0l0,0h0a1.75,1.75,0,0,0-.89.17,21.74,21.74,0,0,0-4.22,3c-.48.43-.77.93-.69,1.2a.39.39,0,0,0,.12.17Z" transform="translate(-15.8 -16.24)"/><path class="cls-7" d="M55.44,49.94a.46.46,0,0,0,0,.18.53.53,0,0,0,.09.25s0,0,0,.06a.79.79,0,0,0,.35.23l.07,0H56a1.75,1.75,0,0,0,.74-.07,5.51,5.51,0,0,0,.66-.24l.16-.06.4-.18a3.55,3.55,0,0,1,1.34-.34c.07,0,.09-.06,0-.09h0c0-.09-.36-.16-.62-.2a2.18,2.18,0,0,0-.61,0l-.24,0-.76.1a2.62,2.62,0,0,1-.72-.06,1.33,1.33,0,0,0-.52-.06.58.58,0,0,0-.42.37Z" transform="translate(-15.8 -16.24)"/><path class="cls-8" d="M66.51,45.25c-.08-.05.06.06,0,0,.07.05,0,0,0,.06l0,0-.06,0c.05.05,0,0,0,.07h0l0,.07-.09-.05,0,.08,0,0c.07.11,0,.12-.09.09l.1.1h-.06v0h0l0,0,0,0-.07.2v0l0,0h0l0,0,0,0s-.07,0,0,0l0,0,0,.08c.06.09,0,0,0,.13l0,0c0,.08-.05.05-.07.09v0l0,0c.06.09-.11,0,0,.08l0,0s0,0,0,.06l0,0c.08.1-.07,0,0,.06l0,0v0h0c-.08-.05,0,0,0,0l0,0v0h0l0,0,0,0v.06l0,0v.05h0l0,.14v0l0,0h0l0,0v.09l.09-.07c-.06-.09,0,0,0-.06h0v0l0,0,.18-.08c.07,0,.16,0,.11-.17v0l0,0h0l0-.16.09-.15h0l.11-.08c.07,0,0-.15,0-.15s0-.13.05-.08,0-.1.1-.1.09-.09.06-.15Z" transform="translate(-15.8 -16.24)"/><path class="cls-8" d="M62.49,46.75l0,.09.32,0,.35,0,0,0h.06l.12,0v0c.11.07.29,0,.35,0l.09,0v0H64l0,0,.11-.07v0h.27l0,0s.16,0,.15,0h.14v0l.1,0h.08l0,0,.07,0,.09,0,.06,0h.16v0h-.11v.05l.16,0h.15v0h0l0,0,.11.08.12,0h0s.11,0,.11,0l0,0h0l.14,0c.05,0,0,0,0,0h0c.14.06.24-.06.4,0h0l.56.07.09,0v0L67,47l.23,0v0l.1,0h.11c.07,0,0,0,.08.06l.09,0a.15.15,0,0,0,0,.12h0l-.12.26c-.06.09.09.22,0,.31s.09.14,0,.19,0,.25.11.33c0,.13.13.16.09.29s0,.13,0,.17h0c-.06.06.12,0,0,.05h0s.13-.05.07,0h0l0,0h0c-.1.07,0,0-.07.09l-.07,0h.05l.13-.1,0,0,0,0,.06-.08h0l0,0s-.09,0,0,0l-.08-.07h-.06l.05-.08h0c.07-.06-.09,0,0,0-.08,0,0,0-.08,0l0,0,0-.09c-.07,0,0-.06-.08,0v-.07h0l-.08-.05a.2.2,0,0,0,.1-.05L67.64,48l0,0c-.14,0-.13-.15,0-.22l-.08,0v0h0v0h0c0-.11-.06-.26,0-.38h0l0,0h0l0-.1h0s.08,0,0-.06h0s0,0,0-.06a.08.08,0,0,0,.08,0h0c.11,0,.09.13.15.18l.07.06,0,0c.12,0,0,.14.12.13l0,0h.09l0,0c.14,0,0,.09.07.1h0l0,0h0c-.08.07,0,.08,0,.12h0l0,.07h0l.06.09h0c.07,0,0,.06,0,.09h0l.07.24h0l0,0h0c-.07,0,0,.05,0,.06h0l0,.22h0c.06.09,0,.14,0,.19l0,0v-.06h0l0,0h0v-.1l.07,0,0,0,.12-.29c-.07-.06.05-.1,0-.16h0l0-.07,0,0c.06-.14,0-.27,0-.41a.3.3,0,0,0-.24-.36h0l-.08-.1h0c-.12,0-.12-.18-.26-.17s-.15-.06-.19,0l0,0h0s0-.07,0-.11l-.06,0v0h0l0,0-.06,0v0l0,0,0,0,0,0-.09,0-.09,0-.08,0c.05,0-.1,0-.08-.06l-.19,0h0l-.07,0-.09.05,0-.07-.06,0,0,0-.06,0-.06,0,0,0,0,0-.1,0h0l-.18,0v0H66l0,0h-.15s.09,0,0,0l.06,0v0h-.16v0c-.11,0-.08-.08-.16,0H65.6l-.1,0h0v0l-.25,0v0l-.34,0,0,0v0l0,0,0,0h-.27l-.12,0h0l-.37,0-.14,0-.16-.05-.08,0v0l0,0,0,0h0l0,0-.12,0-.12,0,0,0h-.07v0h-.14v0h-.29v0h0v0h-.19C62.57,46.74,62.49,46.75,62.49,46.75Z" transform="translate(-15.8 -16.24)"/><path class="cls-8" d="M26,48.36c-.1,0,0-.05,0-.06h-.07c.05-.1,0-.12,0-.19s0-.15-.13-.16h0l0,0h0c-.09,0,0-.1-.09-.12l0-.18h0s.06-.09,0-.14-.13-.1-.07-.15l-.07,0h0l0,0h0v0h0l.09.23h0l0,.05h0c.06,0-.07,0,0,0h0l0,.11c.11,0,0,.06.1.08h0c.08,0,0,.09,0,.12l0,0h0c.11,0-.06.09.06.08h0c.05,0,0,0,.08,0l0,0c.13,0,0,.05.05,0h0c-.07.05,0,0,0,.06l0,0,0,0h0l0,0,.06,0,0,0,.05,0h0l.13.07h0v0l0,0S26,48.38,26,48.36Z" transform="translate(-15.8 -16.24)"/><path class="cls-9" d="M25.88,48.54l-.06-.06a2,2,0,0,0-.63-.14l.06,0c-.12,0-.46-.15-.42,0,0-.06-.25,0-.39,0l0,0a.51.51,0,0,1-.28.07l0,0c-.12,0-.1,0-.25,0l.06,0a.25.25,0,0,0-.19,0c-.08,0-.24,0-.26-.08l-.16,0,0,0c-.21,0-.18,0-.2,0s-.13-.06,0-.11l-.43.07,0,0h-.07l-.11,0s-.16,0-.23,0a.64.64,0,0,1,0,.16c-.09-.07-.27-.11-.3-.15a1.75,1.75,0,0,0-.62.12l-.09,0,.09,0c-.12,0-.35,0-.38.08s.08-.06-.12,0l0,0c-.41-.1-.65.2-1.1.1l.05,0c-.51,0-1,.14-1.55.09-.14,0-.16,0-.24.07l0,0-.14.07c-.21.06-.38-.09-.64,0l0,0c-.1,0-.3.05-.29,0l-.07,0v0l-.23.07c-.18,0,0-.11-.25-.09-.1,0-.27.11-.23.12l.11,0-.09,0c0,.08-.07.17.16.2l.15-.06,0,0h.05l.07,0,.14-.09s-.06.07,0,.07-.08-.06,0-.1l.14,0,0,0,.24-.08c.08,0,.26,0,.26,0l.2-.08c-.12.1.26,0,.24.08.09-.09.34-.07.51-.12l0,0,.19,0c0-.07.15-.09.23-.14s-.06.08,0,.14.2-.07.16-.11l.13.06c0-.09.08,0,.15-.08s0,.07.18,0-.05.06-.05.06.06-.07.09-.11.08,0,.14.07l.27-.09v0l.47-.1h0s0-.06,0,0l.39-.07c0,.06-.24,0-.1.07h-.16c.13.08-.1,0,0,.09s.23,0,.44,0l0-.08c.29-.06.23.14.45.06.05,0,.08-.11.23-.08l-.05.07c.2,0,.11-.1.32-.05,0,0-.16,0-.13,0s.1,0,.2,0l0,.06.69,0v.05l.92.08.11,0,0,0c.11,0,0,0,.06,0l0,0a2.06,2.06,0,0,1,.77,0h0c.16,0,.19-.08.33,0h0a4.76,4.76,0,0,0,1.07.2c0-.08.35,0,.35-.13a2,2,0,0,0,.43,0l.19-.11v.05l.12-.07.08.06.09,0-.07,0a.52.52,0,0,1,.34,0l.32-.08-.1.05c.17-.07,0,.05.19,0v0l.39,0,0,0,.77-.08c-.1,0,0,0,0,0s-.08,0,0-.06.07.06,0,.08l.12,0,0,0s.21,0,.28,0v0l.61,0,.15-.08.53.05c.13,0,0,0,.1-.06s.2,0,.1.08a4.81,4.81,0,0,0,.58,0l0,0a3.69,3.69,0,0,0-1-.29c0-.08-.23-.09-.34-.1h0l-.87.13a4.7,4.7,0,0,0-1,0s0,.06-.06.07-.2.07-.19,0h0l-.32,0v.09c-.32-.09-.79.12-1,0l-.23.09v0a4.14,4.14,0,0,0-.56.09l0,0Z" transform="translate(-15.8 -16.24)"/><path class="cls-8" d="M53.94,48.47c-.11,0,0-.06,0-.08h0l0,0h0c.07-.09,0-.16,0-.23s.06-.15-.1-.24h0v-.07h0c-.07-.06,0-.11,0-.18l0-.22h0l.05-.08-.15,0h0v.07l0,0s-.08,0,0,0h0l0,.14c.09.06,0,.08.06.13h0c.06.06,0,.1,0,.15v.06h0c.11,0-.07.08,0,.11h0c.06,0,0,0,.08,0h0c.13,0,0,0,0,.08h0l0,0h0c-.08,0,0,.05,0,.08h0l0,.05h0l.05.06h0l0,.06h0l.11.14h0c-.05,0,0,0,0,0h0l.06,0Z" transform="translate(-15.8 -16.24)"/><path class="cls-9" d="M53.95,48.62h0v0h0a.14.14,0,0,0,.05.16l.06,0v0h0l0,0,.06-.07v.07l0-.09.05,0v0l.09-.05.09.06.08-.06c0,.09.1,0,.09.1l.19-.08,0,0,.07,0,.09-.12v.14l.06-.1,0,.07c0-.08,0,0,.06-.06l.06,0v0l.05.08.1-.07v0l.17-.07h0v-.08h.05l0,0,0,0,0,.06.14-.05c0,.06-.09,0,0,.07l-.06,0c0,.09,0,0,0,.09l.16,0v-.08c.11-.06.09.14.16.07s0-.11.08-.07l0,.07c.07,0,0-.09.12-.05l0,0c.05,0,0,0,.07,0v.06l.25-.06v.05l.34,0,0,0v0l0-.05,0,0c.07,0,.21-.09.28,0v0c.06,0,.07-.1.12-.06h0c.13,0,.27,0,.37,0s.13,0,.14-.07l.16.1.07-.07v0l0-.05,0,.06h0l0,0,.13.06.12,0,0,0h.07v0h.15v0l.28,0v0l0,0v0s.08.05.1,0v0l.22,0,.06-.08.2,0,0-.07,0,.07.22,0,0,0,0,0h0c.12-.06.28.12.38,0h0l.1,0v.06c.11-.07.17,0,.26,0,.07.13.25,0,.34.07v0l0,0v0a2.24,2.24,0,0,1,.63.07c.08,0,0-.15.14-.08l0,.05.47-.05,0,0,.12,0,0,0h.1l0,0,.08,0h.16c0-.05.1,0,.11,0s.1.06.14,0v.06l.07-.05c.07.09.15-.07.19,0l.34-.08-.12.08.27-.07,0,0,.29,0,0,0,0,0h0l.08-.13c0,.1.09,0,0,.15l0,0v0l.1-.05,0,0,.11,0v0l.24,0,0,.09.05,0,0,0,.12,0,0,0h.09l0,0,.06-.06.07,0,.08,0v.08l.13-.06v.05l0,0,0,0,.06,0,0,0h.21l0,.07.3,0h0c0-.09.07,0,.12,0v0l.23,0v0l.14,0,0-.05c.12.14.25-.06.35.06l0,0h.1l0-.06.07,0v0c0,.07,0-.08.08,0v0l.08,0,0,.05s.08-.08.11,0l-.06,0,.07.05.06,0h0c.06-.11.1,0,.17-.08s0,0,0,.09l0,0,.1,0,0,0v0c.07,0,.14.08.23,0l.17-.1,0,.06h.11v0l.06,0,0,.06.11-.05,0,.06.08,0,.07-.07-.23,0,0-.07-.06.05,0-.07-.06,0h0l0,0,0,0h-.12c-.09,0,0,.05-.09.1l0-.13v0l0,0,0,.05c0-.05-.12,0-.13-.07v.06c0-.09-.05,0-.09,0v-.06c0,.08-.08,0-.11,0v0l-.12,0s-.11,0-.16-.07h0l-.11.05,0-.07h0l0,0v0H66v.07h0l0,0,0,0v0h0l-.07-.05,0,0,0-.06,0,0,0,0s-.12,0-.1.05h0l-.26,0v0l-.15,0,0-.05h-.1l0,0H65.1l-.06,0,0,0H65l0-.06c-.1-.07-.19.11-.26,0l0,.07-.11-.09-.13.05h0v0l-.07-.05v0l-.16,0v0c-.09,0,0,0-.1,0l0,0v-.07l-.14,0h0l0,0,0,0,0,.1-.08,0,.06-.06h0c-.07,0,0,.06-.11.06l0,0v.07h0l-.07,0,0,0c0,.05-.08-.06-.13,0l0-.07h-.12l0,.07.1,0-.06.06.08,0v.05c0-.06-.08,0-.13,0v-.1l-.22,0,0,0-.09,0,0-.06-.08.06,0,0-.16.08,0-.08,0,0h-.09l0,0h0l0,.06c-.07-.1-.2,0-.27-.09l-.16,0h0l-.11.06,0,0c0-.11-.09,0-.14,0h0l-.15,0v0l-.18.09,0-.06,0,.08-.06-.09h0c0-.06-.06,0-.09,0v0l-.16.07v0c0,.06,0,0-.08,0v-.07l-.16.08.13-.1-.08,0-.14.07c0-.12-.15,0-.2-.13h-.33c0,.1,0,0,0,.1h0l-.09-.06,0,0-.07-.07-.06,0,0,0c-.09.06-.07-.08-.16,0l0,0-.21.08v0c-.11,0-.24.09-.32,0v0l-.06,0v0l-.08,0,0,0c-.11,0-.16.07-.25.09l-.12-.11h0l-.32.09-.35-.07,0,.06s-.07.05-.07,0h0l-.12,0v.09c-.11-.12-.29.05-.35-.06l-.09,0v0h-.2l0,0-.11.14,0-.07c-.09,0-.18-.06-.27,0l0,0s-.16,0-.15.05c0-.06-.09,0-.14,0v0l-.1.09v0l-.09,0,0,0-.07,0-.1-.05-.06,0v0h-.17v0h.11v-.11l-.16.08h-.15v.08h0v0h.06l-.07,0,0,.07-.11-.14-.23.11,0,0,0,0-.14.07c-.05,0,0-.06,0,0v0c-.15-.09-.24.16-.4,0l0,0c-.19-.05-.38.06-.57,0l-.09.05v-.05l-.05.06c-.08,0-.13-.12-.23,0v0l-.11,0,0,0v0l-.09,0c-.07,0,0-.1-.09-.11l-.08.07Z" transform="translate(-15.8 -16.24)"/><path class="cls-9" d="M53.41,48.69l-.14,0,0,0c-.07-.1-.2,0-.34,0l0,0s-.19,0-.12,0l-.17,0-.1,0,0,0c-.18,0-.29,0-.35,0h0c-.25,0,0,.05-.21.1l-.12-.13,0,.05-.07,0c-.1,0,0,0,0,.05s-.34,0-.36-.07.12,0,0,.06-.15,0-.26,0,.14,0,0-.06-.22,0-.31,0v0l0,.06c-.07,0-.2,0-.31,0a3.81,3.81,0,0,0-.44-.07h0c0,.06-.18,0-.29.06l.09-.07h-.1l-.12,0,0,0h-.45s0,0,0,0l-.11,0,0-.05h.08l-.19-.06-.05,0c-.14,0,0,0-.13-.06l-.12.05-.07,0c-.07,0-.34,0-.25.07h-1.1l-.07-.06a.6.6,0,0,1-.27,0l0,0-.25,0c.05,0-.1-.05-.17,0l.09,0-.17-.06c-.28-.07-.51.11-.72,0-.08,0,.15,0,.09.08a2.22,2.22,0,0,1-.3-.09c-.18,0-.17.09-.35.07,0,0,0,.07-.09.09s-.16-.08-.08-.1.14,0,.09,0h-.62l0,0c-.25,0-.11,0-.28.06s0-.07-.13,0,0-.05,0-.07l-.38,0h-.09s0,.07-.06.1l-.22,0c.2,0,0-.05.15-.06h-.1c-.19-.05-.09.06-.29.05l0,0a.15.15,0,0,1-.08,0c-.13,0-.14,0-.21,0h.08l-.18,0,0,0c-.1.05-.22-.06-.36,0l-.06-.07-.33,0s.05,0-.06.07l.1,0,.22,0c-.08,0-.07,0,0,.05s-.22,0-.35,0v-.1l-.59,0,.08,0-.24,0-.08-.07a.49.49,0,0,0-.1.39l.79-.06c0,.08-.33,0-.32.08l.73-.07c.07,0,0,0-.07,0l.8,0-.05,0,.11,0a.81.81,0,0,0,.16-.12c-.09.1.25,0,.11.15h.08c.18,0,.12-.05.28-.05l-.05,0,.3,0,0,0,.66-.06c-.07.08.09,0,.1.08l.14,0-.06,0H45l-.13,0c.12,0,0-.08.15-.07,0,0,.12,0,.18,0l.21,0v.08c.06-.06.28,0,.36-.07l0,.05,0,0,.06,0c.17,0-.05-.08.15,0l0,0h.57c.05.06-.16,0-.1.07h.76c0-.08.18.06.32,0l0,0a2.29,2.29,0,0,0,.66-.06l0,0h.38s.09,0,.05-.06c.34.11.66-.06,1,0l-.06,0h.26l-.09-.06.17,0c-.12,0,0,.06,0,.09v0c.14.07.2,0,.2,0l.21,0s-.08,0-.08.06.21-.08.31,0l-.16,0,.19.05h0l.18,0,0,0c.14-.11.42,0,.41,0l.09,0,.26,0,.07,0c.11,0,0,0,0,0,.17,0,.4.08.64,0s.14,0,.33-.06,0,0,0,0l.32,0,0,0,.1,0,0,.05.29-.06a1.61,1.61,0,0,0,.31.07l.24-.05.11,0-.18,0,0,0h0v0a1.07,1.07,0,0,0-.26.08" transform="translate(-15.8 -16.24)"/><path class="cls-8" d="M16.19,48.48h0l0,0-.07-.07,0-.06h-.05L16,48c-.13,0,0-.12,0-.18h0l0-.08,0,0c.11-.15.06-.31.12-.47s.18-.3.08-.51h0l0-.14h0c-.05-.14.08-.23,0-.37s.26,0,.37-.11v0c.12-.05.24.06.36,0s.25-.13.38-.08.17-.13.25,0,.3,0,.44-.06c.14.05.27-.11.41,0,.06-.08.14.09.21.06v0c0,.08,0-.12.07,0h0c0,.06,0-.14,0-.07v0l0,0v0c0,.12,0,0,0,.11v.08l0-.05v-.17l0-.1h0l0,0v0c0-.05,0,.1,0,0l-.14,0,0,.06-.07-.09h0c0-.1,0,.09-.06,0,0,.09,0,0-.05.08v-.05l-.13,0c0,.08-.08,0-.1.08l-.09,0h0l-.1.08c0-.1,0-.08,0-.11l-.1.08,0,0c-.1.13-.23.09-.34,0l0,.16v0l-.06,0v0h-.06v0l-.52.1v0l0,0v0l-.13,0v0c0,.06-.06-.08-.06,0v0l-.27,0c-.18.21-.12.18-.12.31h0c0,.12-.07.19-.08.3v.12h0c.08.1-.13.12,0,.22h0c.05,0,0,0,.07.06h0c.11.08-.09.08,0,.16h0v0h0c-.1,0,0,.11,0,.16h0v.11h0l0,0h0l0,.14h0c.06,0,0,.09,0,.13h0a.39.39,0,0,0,.09.32h0c-.06,0,.05.06,0,.08H16l.13.22,0,0c.11,0,.09.11.09.19l0,0,0-.05Z" transform="translate(-15.8 -16.24)"/><path class="cls-8" d="M66.68,43.25h0c-.07,0,.11.07.05.05h0c-.11,0,.05.06,0,0h0c0,.05-.17,0-.12.1-.14,0-.05.18-.14.24s.1.27-.09.29.05.16-.06.16,0,.2-.06.26-.14.11-.13.21h0L66,44.9c.05.11-.08.15,0,.26h0l0,.09h0c.07.17,0,.24-.12.34s-.07.21-.2.27l0,0v.06h0c0,.06-.12,0,0,.13l-.09.23,0,0h-.06s0,.06,0,.09l0,0s0,0,0,0h0s0,0,0,0l0,0s.1-.07,0-.16l0,0v-.2l0,0c0,.06,0,.13-.1.17l0,0,0,0h0s-.1,0,0,.09l0,.17,0,0h-.06c.05,0,0,0,0,.06h0s0,0,0,0h0s0,0,0,0l0,0s.07,0,0-.12h0l0-.14,0,0s0,0,0,0h0c0-.05-.07-.11,0-.15h0s0,0,0-.06h0l0-.06h0s0,0,0,0h0s-.09-.06,0-.07h0v0h0c-.08,0,.11,0,0-.07h0c-.1,0,0,0-.08,0h0c-.11,0,.08-.06,0-.09h0l0,0s.06-.09,0-.13h0c-.09,0,0-.07-.1-.09l0-.11h0c-.12,0,0,0,0,0h0s-.05,0,0-.05h0c0-.07-.11-.13-.1-.21h0s0,0,0,0h0l0,0H65c.09-.06.12-.12,0-.14.06,0,0,0,0,0l-.08,0a.29.29,0,0,1,.1,0l-.08,0h0s0,0,0,0,0,0-.07,0l0-.06h0c-.1,0,0,0-.07,0,.11,0-.07,0,0,0h0s.15-.07.08,0,.12,0,.08,0,0,.11,0,.17c.1,0,.21.09.07.18s.12.06,0,.1.12.09.08.15-.07.11,0,.15h0l0,.19c.09,0,0,.1.09.16h0v.06h0l.07.06v-.08h0s.06,0,0-.09l0,0v-.1l0,0,0,0h0s0,0,0-.08l0,0s-.05-.11,0-.1h0v0h0c-.06-.07.13,0,0-.11h0c-.09,0,0,0-.06-.06l0,0c-.08-.09.12-.06,0-.15h0l0-.08c0-.07.12-.1.08-.19h0c-.06-.08.06-.09,0-.18l.06-.17,0,0c-.11-.06,0,0,0-.06l0,0,0-.09h0l0,0h0c.07-.1,0-.26.08-.36l0,0,0,0h0s0,0,0,0h0l.05,0h0L66.11,44c.12,0,.19-.09.11-.2s0,0,0,0l0-.1a.17.17,0,0,1,.11,0l0-.1h0s0,0,0,0,0,0,0-.09l.07-.07,0,0c-.08,0,0,0,0-.07.11,0-.05,0,0,0h.11c-.06,0,0,0,0,0l0-.1c.08,0-.05,0,0,0h0S66.65,43.2,66.68,43.25Z" transform="translate(-15.8 -16.24)"/><path class="cls-8" d="M55.39,49.92l-.1,0v0s0,0,0,0h0v0h-.12s0,0-.05,0v0H55v0l0,0h0l0,0s-.07,0-.06,0h0c-.05,0,0-.08-.06,0v0c0,.07,0,0,0,0l0,0c-.07.06,0-.07-.09,0v0h0s0-.09-.09-.07h0c-.06,0,0,0-.11,0l-.09-.06,0,0c-.06.06,0,0,0,0l0,0,0,0h0l-.19-.09,0,0h0v0h0v0h0l-.1.06h0c0-.08,0-.14-.07-.12l0,0H54s0,0,.06-.06H54v0c-.07,0,0,0-.07,0v-.06l0,0c-.07,0,0,0-.06,0s0,0,0,0h0L54,49h0l0,0c.06,0,0,0,0,0h0l.06,0,0,0h0l.11,0h0l-.06,0c-.09,0,0,0-.07,0h0l0,0h0s.09,0,.05,0h0c-.08,0,.06,0,0,0h0s-.08.09,0,.09.08.07.07.14.18,0,.12.12.1,0,.06.07.13,0,.13.06l.08.1h0l.14.09c.07,0,.07.06.13,0h0l0,0h0c.11-.07.13,0,.19,0s.11,0,.14.11l0,0h0s0,.08.07,0l.12,0,0,0Z" transform="translate(-15.8 -16.24)"/><polygon class="cls-5" points="34.18 1.25 34.17 1.25 34.18 1.26 34.18 1.25"/><path class="cls-5" d="M51.71,18.33l-.07,0,0,0s-.12,0-.14-.08.1-.12,0-.12l-.08.09c0-.12-.2,0-.15-.15,0,.07.06-.06.09,0s0-.09-.17,0a.28.28,0,0,0-.18,0l0,0h0l0-.08v0c-.16.28-.15-.08-.29.07,0-.08.1,0,.14-.17,0,.06-.07-.07-.12.08-.08,0-.2.05-.16-.13-.07.18-.12,0-.17.09.07-.17,0,0,0-.05l0-.07a.24.24,0,0,1-.27,0l0,0,0-.1c0,.15,0,0,0,.11a1.26,1.26,0,0,1-.13-.16c-.09.18-.28.06-.38.19l-.1-.14c.07.05,0-.14.06-.06v.06l.05,0c.12.1.08-.2.2-.09l0,.1c.07,0,0-.18,0-.19l.07.12c0-.16.09-.19.14-.14L50,17.4s.09.06.11,0h0c.06-.1.07,0,.12-.14,0,.16,0,.09-.06.22h0s0-.16.09-.17l.06.22.07-.13v0s0-.14,0-.11,0,.16,0,.18.07-.15.07-.05l0,0c.12-.13.12.17.25,0h0s.09-.25.12-.17-.11.19-.05.25.08,0,.14.05l0-.08c0,.12.14,0,.09.1l.12-.18-.06,0c0-.08.15-.14.1,0l0-.08s.08-.06.05,0-.07.1-.05.14-.06,0-.09,0,0,.09-.07.14.07-.06.11-.09v0h.07s.05,0,0,.12.06,0,.1-.08h0l.07-.06v-.09s.11-.15.07,0l-.07,0c.05,0,0,.15,0,.21s.12-.16.13-.07a1.26,1.26,0,0,1,0,.3c.07-.06.1,0,.18-.09-.07.06,0-.1-.05,0l.06-.1c-.11.12-.13,0-.18,0l.08-.06s-.13.09-.07-.06,0,0,0,.05l.06-.11,0,0c.05-.07.13,0,.19,0l0,.16,0,0h0v.1h0s0,.24.1.1-.12.1-.06.14S52,18,52,18l0-.13c.05.07.22-.22.25-.1l-.09.31.32-.2-.17.17.12.12c.08-.1.15-.09.22-.11l-.13.11c.09,0-.06.23.11.07l-.12.13c0,.06.16-.08.06.06.12,0,.25-.33.37-.27s-.15.12-.1.14l.08-.09c-.05.07,0,0,.05.08l-.2.06c.14,0,0,.14.2.09a1,1,0,0,1,0,.27l.1-.13,0,.05c.09-.06.06,0,.17-.11l.23.47c-.08,0-.17,0-.22,0,.17,0,.27.06.17.15h-.17l.18,0c-.09,0,0,0-.08.07-.26,0-.27,0-.34,0a1.51,1.51,0,0,0-.54-.46s0-.19-.27-.17H52l.18-.18c0,.05-.09.07-.08.14s.11-.17.21-.16l-.12-.05s-.2.22-.19.13l0,0s0-.09,0-.09l-.12.1,0,0s-.12.08-.13,0l0,0-.11,0c.06-.07,0-.08.05-.17S51.75,18.23,51.71,18.33Z" transform="translate(-15.8 -16.24)"/><polygon class="cls-5" points="32.28 2.1 32.34 2.17 32.34 2.11 32.28 2.1"/><polygon class="cls-5" points="32.45 2.06 32.52 2.04 32.4 1.94 32.45 2.06"/><polygon class="cls-5" points="32.55 1.95 32.47 1.88 32.5 1.98 32.53 1.97 32.6 1.99 32.55 1.93 32.55 1.95"/><path class="cls-5" d="M48.38,18.14l.13,0C48.48,18.08,48.45,18.16,48.38,18.14Z" transform="translate(-15.8 -16.24)"/><path class="cls-5" d="M48.52,18.06c-.06,0,0,.1,0,.11l.08,0-.05,0,.07,0Z" transform="translate(-15.8 -16.24)"/><path class="cls-5" d="M48.52,18.18h0Z" transform="translate(-15.8 -16.24)"/><path class="cls-5" d="M48.71,18l-.17-.07,0,.1c-.05,0-.09,0,0,0l.19,0v0h.08l-.14-.17Z" transform="translate(-15.8 -16.24)"/><path class="cls-5" d="M48.77,17.87s0,.12.09.15v-.11S48.84,18,48.77,17.87Z" transform="translate(-15.8 -16.24)"/><path class="cls-5" d="M48.82,17.83s.15.1.1,0S48.81,17.75,48.82,17.83Z" transform="translate(-15.8 -16.24)"/><path class="cls-5" d="M49,17.71c-.1-.1,0-.06,0-.12s0,0,0,.14v.12c0-.15.22.11.12-.14Z" transform="translate(-15.8 -16.24)"/><polygon class="cls-5" points="33.13 1.47 33.09 1.48 33.13 1.52 33.13 1.47"/><path class="cls-5" d="M49.41,17.51l0-.14,0,.16-.06-.06c0,.06.07.19,0,.18s-.05-.12-.09-.07-.06,0,0,.11l-.15-.11.1.25v-.13l.1.1.05-.1h0c.13.12,0-.11.11-.07v0l0,0,0,0,0-.21C49.37,17.41,49.5,17.6,49.41,17.51Z" transform="translate(-15.8 -16.24)"/><polygon class="cls-5" points="33.68 1.09 33.63 1.09 33.69 1.16 33.68 1.09"/><path class="cls-5" d="M50.4,17.35s0-.08.06-.11S50.41,17.28,50.4,17.35Z" transform="translate(-15.8 -16.24)"/><path class="cls-5" d="M52.39,18s.1-.08.15-.13-.12,0-.12.1Z" transform="translate(-15.8 -16.24)"/><polygon class="cls-5" points="36.92 2.01 36.92 1.99 36.83 2.08 36.92 2.01"/><polygon class="cls-5" points="37.23 2.06 37.2 2.13 37.29 2.08 37.23 2.06"/><polygon class="cls-5" points="37.28 2.16 37.23 2.17 37.27 2.2 37.28 2.16"/><polygon class="cls-5" points="37.36 2.23 37.29 2.24 37.36 2.25 37.36 2.23"/></g><g id="Layer_7" data-name="Layer 7"><path class="cls-4" d="M70.1,47.29h-.58V47h1.56v.32H70.5V49h-.4Z" transform="translate(-15.8 -16.24)"/><path class="cls-4" d="M71.33,47H72l.48,1.53h0L72.94,47h.65v2H73.2V47.32h0L72.65,49h-.39l-.54-1.66h0V49h-.39Z" transform="translate(-15.8 -16.24)"/></g><g id="Layer_5" data-name="Layer 5"><path class="cls-9" d="M231.91,57.28c-.4,0-.71,0-1.16,0l-1.05,0a.08.08,0,0,1-.09-.07.79.79,0,0,1,0-.3c0-.05,0-.08,0-.08h.17c.31,0,.35,0,.38-.21a17.66,17.66,0,0,0,.08-1.81c0-.67,0-1.35,0-2.05,0-.32-.07-.35-.62-.48a1,1,0,0,1,0-.34s0,0,.1,0h2.8c.65,0,1,0,1.27,0a.13.13,0,0,1,.09.1c0,.58,0,1.17,0,1.19s0,.07-.1.08-.26,0-.27-.06c-.14-.68-.29-.84-1.35-.84a6.29,6.29,0,0,0-.64,0c-.12,0-.13.12-.16.26a15.48,15.48,0,0,0,0,1.69c0,.1,0,.13.05.13.44,0,1.18,0,1.51,0s.23-.1.31-.4c0-.09.23-.1.34-.1s.06,0,.06.05c0,.25,0,.47,0,.69s.05.62.05.73,0,.1,0,.12a3.1,3.1,0,0,1-.34.05,1.25,1.25,0,0,0-.14-.4c-.08-.19-.29-.23-1-.23a7.12,7.12,0,0,0-.73,0c-.06,0-.12.08-.12.22v.7c0,.95.06,1,1,1l-.09.36s0,0-.06,0Z" transform="translate(-15.8 -16.24)"/><path class="cls-9" d="M238,51.75a2.86,2.86,0,0,1,2.94,2.74,2.9,2.9,0,0,1-1,2.25,3,3,0,0,1-1.79.7,3.34,3.34,0,0,1-2.44-1,2.89,2.89,0,0,1-.7-1.87,2.63,2.63,0,0,1,.92-2,3.13,3.13,0,0,1,2.1-.79Zm-.26.45a1.4,1.4,0,0,0-1.06.53,2.64,2.64,0,0,0-.49,1.7,2.68,2.68,0,0,0,.66,1.84,1.94,1.94,0,0,0,1.39.67c.69,0,1.49-.74,1.49-2.17a2.68,2.68,0,0,0-.68-2,1.71,1.71,0,0,0-1.3-.6Z" transform="translate(-15.8 -16.24)"/><path class="cls-9" d="M245.07,51.75A2.86,2.86,0,0,1,248,54.49a2.9,2.9,0,0,1-1,2.25,3,3,0,0,1-1.79.7,3.34,3.34,0,0,1-2.44-1,2.89,2.89,0,0,1-.7-1.87,2.63,2.63,0,0,1,.92-2,3.13,3.13,0,0,1,2.1-.79Zm-.26.45a1.4,1.4,0,0,0-1.06.53,2.64,2.64,0,0,0-.49,1.7,2.68,2.68,0,0,0,.66,1.84,1.94,1.94,0,0,0,1.39.67c.69,0,1.49-.74,1.49-2.17a2.68,2.68,0,0,0-.68-2,1.71,1.71,0,0,0-1.3-.6Z" transform="translate(-15.8 -16.24)"/><path class="cls-9" d="M249.07,52c0-.05,0-.08.05-.08h1.31c.57,0,.87,0,1.31,0a3.74,3.74,0,0,1,2.41.75,2.56,2.56,0,0,1,.91,1.95,2.44,2.44,0,0,1-.8,1.77,3.38,3.38,0,0,1-1.44.82,4.72,4.72,0,0,1-1.31.13l-1.46,0h-.87s-.08,0-.08,0l0-.38c.56-.12.61-.22.62-.39.05-.49.05-1.87.05-2.89a8.69,8.69,0,0,0,0-1c0-.1-.14-.18-.56-.25,0,0-.07,0-.08-.21Zm4.78,2.49a2.09,2.09,0,0,0-.82-1.75,2.4,2.4,0,0,0-1.39-.43,1.6,1.6,0,0,0-.71.13c-.06,0-.08.08-.09.16,0,.25-.05,1-.05,1.71a13.66,13.66,0,0,0,.13,2.32c0,.06,0,.09.12.13a1.87,1.87,0,0,0,.62.08,2.62,2.62,0,0,0,1.19-.33,2.23,2.23,0,0,0,1-2Z" transform="translate(-15.8 -16.24)"/><path class="cls-9" d="M273.58,57.28c-.4,0-.71,0-1.16,0l-1.05,0a.08.08,0,0,1-.09-.07.79.79,0,0,1,0-.3c0-.05,0-.08,0-.08h.17c.31,0,.35,0,.38-.21a17.66,17.66,0,0,0,.08-1.81c0-.67,0-1.35,0-2.05,0-.32-.07-.35-.62-.48a1,1,0,0,1,0-.34s0,0,.1,0h2.8c.65,0,1,0,1.27,0a.13.13,0,0,1,.09.1c0,.58,0,1.17,0,1.19s0,.07-.1.08-.26,0-.27-.06c-.14-.68-.29-.84-1.35-.84a6.28,6.28,0,0,0-.64,0c-.12,0-.13.12-.16.26a15.5,15.5,0,0,0,0,1.69c0,.1,0,.13.05.13.44,0,1.18,0,1.51,0s.23-.1.31-.4c0-.09.23-.1.34-.1s.06,0,.06.05c0,.25,0,.47,0,.69s.05.62.05.73,0,.1,0,.12a3.1,3.1,0,0,1-.34.05,1.25,1.25,0,0,0-.14-.4c-.08-.19-.29-.23-1-.23a7.12,7.12,0,0,0-.73,0c-.06,0-.12.08-.12.22v.7c0,.95.06,1,1,1l-.09.36s0,0-.06,0Z" transform="translate(-15.8 -16.24)"/><path class="cls-9" d="M279.66,51.75a2.86,2.86,0,0,1,2.94,2.74,2.9,2.9,0,0,1-1,2.25,3,3,0,0,1-1.79.7,3.34,3.34,0,0,1-2.44-1,2.89,2.89,0,0,1-.7-1.87,2.63,2.63,0,0,1,.92-2,3.13,3.13,0,0,1,2.1-.79Zm-.26.45a1.4,1.4,0,0,0-1.06.53,2.64,2.64,0,0,0-.49,1.7,2.68,2.68,0,0,0,.66,1.84,1.94,1.94,0,0,0,1.39.67c.69,0,1.49-.74,1.49-2.17a2.68,2.68,0,0,0-.68-2,1.71,1.71,0,0,0-1.3-.6Z" transform="translate(-15.8 -16.24)"/><path class="cls-9" d="M286.18,57c0,.27-.05.29-.13.29h-1.39c-.36,0-.69,0-.84,0s-.1,0-.14-.2,0-.17,0-.18c.48-.08.6-.17.62-.46s0-.71,0-1.45V54c0-.47,0-1,0-1.26s0-.29-.17-.31l-.39-.09c-.09,0-.1,0-.12-.1v-.31l1.31,0c.34,0,.79-.06,1.16-.06a2.81,2.81,0,0,1,1.61.4,1.31,1.31,0,0,1,.55,1.06,1.57,1.57,0,0,1-.81,1.19s-.09.09-.08.13a4.79,4.79,0,0,0,1.45,2.08,2.8,2.8,0,0,0,.7.4s0,.05,0,.21,0,.14-.09.14a3,3,0,0,1-1.93-.67,4.66,4.66,0,0,1-1-1.4c-.14-.26-.3-.38-.75-.38s-.42.08-.42.16c0,1,0,1.47.1,1.53a3.24,3.24,0,0,0,.73.18Zm1-3.52A1.14,1.14,0,0,0,286,52.23a1.11,1.11,0,0,0-.47.09.24.24,0,0,0-.09.16c-.05.56-.05,1.05-.05,1.95,0,.13,0,.17.38.17a2.61,2.61,0,0,0,.91-.13,1.08,1.08,0,0,0,.52-1Z" transform="translate(-15.8 -16.24)"/><path class="cls-9" d="M293.58,53.82c0-.6,0-1,0-1.16s-.12-.35-.82-.35c0,0-.09-.05-.08-.09l.1-.31h1l1.38,0c.08,0,.1,0,.14,0a1.45,1.45,0,0,1,0,.34c-.49.05-.69.12-.73.4s0,.81,0,1.36v1.32c0,1.21,0,1.35.2,1.42a2.39,2.39,0,0,0,.73.06c.73,0,1.16-.1,1.44-1,0-.06,0-.08.07-.08a.86.86,0,0,1,.27.08.11.11,0,0,1,0,.12c-.12.48-.21.84-.29,1.2a.15.15,0,0,1-.13.13,3.92,3.92,0,0,1-.52,0c-.34,0-.74,0-2.27,0-.51,0-.95.08-1.21.09,0,0-.08,0-.09,0s-.09-.3-.07-.32c.51-.12.68-.21.75-.48a5,5,0,0,0,.05-1.08Z" transform="translate(-15.8 -16.24)"/><path class="cls-9" d="M298.55,56.81c.22,0,.35-.07.4-.26a8,8,0,0,0,.06-1.43V53.81c0-.53,0-.83,0-1.05s-.18-.42-.83-.42a.08.08,0,0,1-.06-.06,1,1,0,0,1,.08-.29c0-.06.05-.08.2-.08h2.42c.08,0,.16,0,.17.06l0,.31c-.79.12-.86.18-.88.3a6.54,6.54,0,0,0-.06,1.29v1.19a9.21,9.21,0,0,0,.09,1.52c0,.16.1.18.71.25a1.57,1.57,0,0,1,0,.36c0,.05,0,.06-.13.06h-1.39l-1.13,0c-.05,0-.09,0-.1-.12l0-.29s0-.05,0-.05Z" transform="translate(-15.8 -16.24)"/><path class="cls-9" d="M304.46,57.28c-.4,0-.71,0-1.16,0l-1.05,0a.08.08,0,0,1-.09-.07.79.79,0,0,1,0-.3c0-.05,0-.08,0-.08h.17c.31,0,.35,0,.38-.21a17.66,17.66,0,0,0,.08-1.81c0-.67,0-1.35,0-2.05,0-.32-.07-.35-.62-.48a1,1,0,0,1,0-.34s0,0,.1,0H305c.65,0,1,0,1.27,0a.13.13,0,0,1,.09.1c0,.58,0,1.17,0,1.19s0,.07-.1.08-.26,0-.27-.06c-.14-.68-.29-.84-1.35-.84a6.29,6.29,0,0,0-.64,0c-.12,0-.13.12-.16.26a15.48,15.48,0,0,0,0,1.69c0,.1,0,.13.05.13.44,0,1.18,0,1.51,0s.23-.1.31-.4c0-.09.23-.1.34-.1s.06,0,.06.05c0,.25,0,.47,0,.69s.05.62.05.73,0,.1,0,.12a3.11,3.11,0,0,1-.34.05,1.25,1.25,0,0,0-.14-.4c-.08-.19-.29-.23-1-.23a7.12,7.12,0,0,0-.73,0c-.06,0-.12.08-.12.22v.7c0,.95.06,1,1,1l-.09.36s0,0-.06,0Z" transform="translate(-15.8 -16.24)"/><path class="cls-9" d="M308.33,53.54a5.39,5.39,0,0,0-.05-1c0-.06-.07-.09-.68-.18V52s0,0,.05,0h1.66c.91,0,1.73,0,2.49,0,.12,0,.18,0,.22.05s0,.05,0,.21A6.51,6.51,0,0,0,312,53.2s0,.05-.13.05c-.26,0-.26-.05-.29-.12-.14-.65-.23-.78-1.21-.78a7.13,7.13,0,0,0-.87,0c-.1,0-.14.08-.14.18,0,.55,0,1.1,0,1.61a.15.15,0,0,0,.1.14h.57c.39,0,.56,0,.87,0s.38-.1.48-.53c0,0,.08-.05.31-.05.07,0,.08,0,.08.05a8.68,8.68,0,0,0-.06.9,6.41,6.41,0,0,0,0,.77s-.09,0-.38.07c0-.09-.09-.3-.13-.39s-.09-.26-.34-.29-.53,0-1,0a1.51,1.51,0,0,0-.51,0c-.05,0-.08.09-.08,1.22a1.13,1.13,0,0,0,.1.6c0,.08.2.16.93.16.95,0,1.39-.14,1.64-.95,0,0,0-.05.1-.05l.25,0s.05,0,.05.09a5.29,5.29,0,0,1-.25,1.29.17.17,0,0,1-.13.05c-.34,0-1.29,0-2.1,0s-1.49,0-2.32,0a1.41,1.41,0,0,1,0-.34s0-.05.06-.05c.52-.09.58-.12.6-.3s.05-.61.05-1.31Z" transform="translate(-15.8 -16.24)"/><path class="cls-9" d="M314.57,55.43s.06.05.13.31.12.35.51.49c.09,0,.16.09.16.26s0,.12-.08.13c-.47.12-.49.14-.66.77,0,.05-.05.08-.18.08s-.25-.16-.43-.57c-.05-.14-.14-.2-.42-.31a.28.28,0,0,1-.18-.22c0-.1.13-.21.25-.23.35-.07.4-.1.54-.51a.35.35,0,0,1,.35-.19Z" transform="translate(-15.8 -16.24)"/></g></svg>
